<svg xmlns="http://www.w3.org/2000/svg" xmlns:xlink="http://www.w3.org/1999/xlink" contentStyleType="text/css" height="171.4622px" preserveAspectRatio="none" style="width:800px;height:171px;background:#FFFFFF;" version="1.1" viewBox="0 0 800 171" width="800.1572px" zoomAndPan="magnify"><defs/><g><ellipse cx="391.3219" cy="6.6749" fill="#222222" rx="4.1718" ry="4.1718" style="stroke:#222222;stroke-width:0.4171830869087703;"/><g id="Idle"><rect fill="#F1F1F1" height="20.97" rx="5.2148" ry="5.2148" style="stroke:#181818;stroke-width:0.20859154345438516;" width="62.9107" x="359.8663" y="36.2949"/><line style="stroke:#181818;stroke-width:0.20859154345438516;" x1="359.8663" x2="422.777" y1="47.2655" y2="47.2655"/><text fill="#000000" font-family="sans-serif" font-size="5.8406" lengthAdjust="spacing" textLength="10.6459" x="385.9987" y="43.8022">Idle</text><text fill="#000000" font-family="sans-serif" font-size="5.0062" lengthAdjust="spacing" textLength="54.5671" x="361.9522" y="53.9983">Waiting for user input</text></g><g id="Start_Length_Stop"><rect fill="#F1F1F1" height="20.97" rx="5.2148" ry="5.2148" style="stroke:#181818;stroke-width:0.20859154345438516;" width="92.723" x="35.4105" y="92.3018"/><line style="stroke:#181818;stroke-width:0.20859154345438516;" x1="35.4105" x2="128.1335" y1="103.2724" y2="103.2724"/><text fill="#000000" font-family="sans-serif" font-size="5.8406" lengthAdjust="spacing" textLength="53.6345" x="54.9548" y="99.809">Start_Length_Stop</text><text fill="#000000" font-family="sans-serif" font-size="5.0062" lengthAdjust="spacing" textLength="84.3794" x="37.4964" y="110.0052">Activating length stop positioning</text></g><g id="Metal_Stop_Prompt"><rect fill="#F1F1F1" height="20.97" rx="5.2148" ry="5.2148" style="stroke:#181818;stroke-width:0.20859154345438516;" width="86.5826" x="175.317" y="92.3018"/><line style="stroke:#181818;stroke-width:0.20859154345438516;" x1="175.317" x2="261.8996" y1="103.2724" y2="103.2724"/><text fill="#000000" font-family="sans-serif" font-size="5.8406" lengthAdjust="spacing" textLength="56.4265" x="190.3951" y="99.809">Metal_Stop_Prompt</text><text fill="#000000" font-family="sans-serif" font-size="5.0062" lengthAdjust="spacing" textLength="78.2389" x="177.4029" y="110.0052">Message: "Move metal to stop"</text></g><g id="Start_Clamping"><rect fill="#F1F1F1" height="20.97" rx="5.2148" ry="5.2148" style="stroke:#181818;stroke-width:0.20859154345438516;" width="73.852" x="459.523" y="92.3018"/><line style="stroke:#181818;stroke-width:0.20859154345438516;" x1="459.523" x2="533.375" y1="103.2724" y2="103.2724"/><text fill="#000000" font-family="sans-serif" font-size="5.8406" lengthAdjust="spacing" textLength="44.8965" x="474.0008" y="99.809">Start_Clamping</text><text fill="#000000" font-family="sans-serif" font-size="5.0062" lengthAdjust="spacing" textLength="65.5083" x="461.6089" y="110.0052">Starting clamping process</text></g><g id="Sawing_Done"><rect fill="#F1F1F1" height="26.7975" rx="5.2148" ry="5.2148" style="stroke:#181818;stroke-width:0.20859154345438516;" width="88.7166" x="613.96" y="89.3898"/><line style="stroke:#181818;stroke-width:0.20859154345438516;" x1="613.96" x2="702.6766" y1="100.3604" y2="100.3604"/><text fill="#000000" font-family="sans-serif" font-size="5.8406" lengthAdjust="spacing" textLength="39.381" x="638.6278" y="96.8971">Sawing_Done</text><text fill="#000000" font-family="sans-serif" font-size="5.0062" lengthAdjust="spacing" textLength="63.9952" x="616.0459" y="107.0932">Sawing process complete</text><text fill="#000000" font-family="sans-serif" font-size="5.0062" lengthAdjust="spacing" textLength="80.3729" x="616.0459" y="112.9207">timer1Start = TRUE, time1 = 3s</text></g><g id="Reset_Sawing_Done"><rect fill="#F1F1F1" height="20.97" rx="5.2148" ry="5.2148" style="stroke:#181818;stroke-width:0.20859154345438516;" width="67.2227" x="667.6765" y="148.3086"/><line style="stroke:#181818;stroke-width:0.20859154345438516;" x1="667.6765" x2="734.8992" y1="159.2792" y2="159.2792"/><text fill="#000000" font-family="sans-serif" font-size="5.8406" lengthAdjust="spacing" textLength="58.879" x="671.8483" y="155.8158">Reset_Sawing_Done</text><text fill="#000000" font-family="sans-serif" font-size="5.0062" lengthAdjust="spacing" textLength="53.1077" x="669.7624" y="166.012">Clearing sawingDone</text></g><!--link *start* to Idle--><g id="link_*start*_Idle"><path d="M391.3219,11.0011 C391.3219,16.825 391.3219,25.4607 391.3219,33.6875 " fill="none" id="*start*-to-Idle" style="stroke:#181818;stroke-width:0.4171830869087703;"/><polygon fill="#181818" points="391.3219,36.1906,392.9906,32.436,391.3219,34.1047,389.6532,32.436,391.3219,36.1906" style="stroke:#181818;stroke-width:0.4171830869087703;"/></g><!--link Idle to Start_Length_Stop--><g id="link_Idle_Start_Length_Stop"><path d="M359.7662,47.9176 C271.0647,50.0953 25.1645,57.2459 13.354,69.7822 C2.5031,81.2965 14.5309,88.5123 32.8953,93.6395 " fill="none" id="Idle-to-Start_Length_Stop" style="stroke:#181818;stroke-width:0.4171830869087703;"/><polygon fill="#181818" points="35.3062,94.3126,32.1386,91.6957,33.2971,93.7517,31.2411,94.9102,35.3062,94.3126" style="stroke:#181818;stroke-width:0.4171830869087703;"/><text fill="#000000" font-family="sans-serif" font-size="5.4234" lengthAdjust="spacing" textLength="84.3987" x="13.7712" y="75.2335">startButtonLengthStop = TRUE</text></g><!--link Start_Length_Stop to Idle--><g id="link_Start_Length_Stop_Idle"><path d="M92.0306,92.21 C100.4076,84.5964 112.9607,74.6883 125.9935,69.7822 C167.9871,53.9751 296.3592,49.2147 357.172,47.8046 " fill="none" id="Start_Length_Stop-to-Idle" style="stroke:#181818;stroke-width:0.4171830869087703;"/><polygon fill="#181818" points="359.6744,47.7466,355.8821,46.1654,357.589,47.795,355.9594,49.5019,359.6744,47.7466" style="stroke:#181818;stroke-width:0.4171830869087703;"/><text fill="#000000" font-family="sans-serif" font-size="5.4234" lengthAdjust="spacing" textLength="50.7224" x="126.4106" y="75.2335">Length stop at pos</text></g><!--link Idle to Metal_Stop_Prompt--><g id="link_Idle_Metal_Stop_Prompt"><path d="M359.6827,48.3473 C304.3392,50.6836 194.7077,56.8954 183.1475,69.7822 C175.9678,77.7796 182.7637,84.7119 193.4686,90.8737 " fill="none" id="Idle-to-Metal_Stop_Prompt" style="stroke:#181818;stroke-width:0.4171830869087703;"/><polygon fill="#181818" points="195.638,92.1224,193.2164,88.8031,193.8302,91.0818,191.5515,91.6956,195.638,92.1224" style="stroke:#181818;stroke-width:0.4171830869087703;"/><text fill="#000000" font-family="sans-serif" font-size="5.4234" lengthAdjust="spacing" textLength="150.2075" x="183.5647" y="75.2335">gvl.stopPosReached = TRUE and not gvl.metalIsToStop</text></g><!--link Metal_Stop_Prompt to Idle--><g id="link_Metal_Stop_Prompt_Idle"><path d="M262.016,95.8895 C284.473,91.8011 312.0863,85.6143 335.8366,76.8743 C349.6745,71.7805 362.1945,65.0859 372.9745,58.6863 " fill="none" id="Metal_Stop_Prompt-to-Idle" style="stroke:#181818;stroke-width:0.4171830869087703;"/><polygon fill="#181818" points="375.1269,57.4086,371.0464,57.8903,373.3332,58.4734,372.7501,60.7602,375.1269,57.4086" style="stroke:#181818;stroke-width:0.4171830869087703;"/><text fill="#000000" font-family="sans-serif" font-size="5.4234" lengthAdjust="spacing" textLength="61.4314" x="352.1067" y="75.2335">metalIsToStop = TRUE</text></g><!--link Idle to Start_Clamping--><g id="link_Idle_Start_Clamping"><path d="M402.6234,57.371 C409.9533,63.5954 419.9323,71.3925 429.7028,76.8743 C440.4118,82.8859 450.4674,87.2052 461.6604,91.2894 " fill="none" id="Idle-to-Start_Clamping" style="stroke:#181818;stroke-width:0.4171830869087703;"/><polygon fill="#181818" points="464.0119,92.1474,461.0567,89.2927,462.0523,91.4324,459.9127,92.428,464.0119,92.1474" style="stroke:#181818;stroke-width:0.4171830869087703;"/><text fill="#000000" font-family="sans-serif" font-size="5.4234" lengthAdjust="spacing" textLength="137.4091" x="430.1199" y="75.2335">startClamp = TRUE and gvl.metalIsToStop = TRUE</text></g><!--link Start_Clamping to Idle--><g id="link_Start_Clamping_Idle"><path d="M533.4812,97.7752 C557.7488,93.2738 582.7172,84.83 569.4591,69.7822 C559.939,58.9813 473.8775,52.1625 425.3216,49.1213 " fill="none" id="Start_Clamping-to-Idle" style="stroke:#181818;stroke-width:0.4171830869087703;"/><polygon fill="#181818" points="422.8234,48.9648,426.4664,50.865,424.9052,49.0952,426.675,47.534,422.8234,48.9648" style="stroke:#181818;stroke-width:0.4171830869087703;"/><text fill="#000000" font-family="sans-serif" font-size="5.4234" lengthAdjust="spacing" textLength="49.7664" x="573.2137" y="75.2335">Clamping initiated</text></g><!--link Idle to Sawing_Done--><g id="link_Idle_Sawing_Done"><path d="M422.9444,47.5589 C478.5841,48.6352 591.4154,52.8946 626.6132,69.7822 C635.6494,74.1209 641.9534,80.2216 647.5937,87.2386 " fill="none" id="Idle-to-Sawing_Done" style="stroke:#181818;stroke-width:0.4171830869087703;"/><polygon fill="#181818" points="649.1619,89.1896,648.1103,85.2177,647.8551,87.5638,645.509,87.3086,649.1619,89.1896" style="stroke:#181818;stroke-width:0.4171830869087703;"/><text fill="#000000" font-family="sans-serif" font-size="5.4234" lengthAdjust="spacing" textLength="86.3795" x="637.0427" y="75.2335">gvl.sawingProcessDone = TRUE</text></g><!--link Sawing_Done to Reset_Sawing_Done--><g id="link_Sawing_Done_Reset_Sawing_Done"><path d="M663.1793,116.3106 C665.8659,122.5684 669.5914,129.9525 674.172,135.7931 C677.7223,140.3279 680.3732,143.0052 684.7744,146.5638 " fill="none" id="Sawing_Done-to-Reset_Sawing_Done" style="stroke:#181818;stroke-width:0.4171830869087703;"/><polygon fill="#181818" points="686.7209,148.1375,684.8504,144.4792,685.0989,146.8261,682.752,147.0745,686.7209,148.1375" style="stroke:#181818;stroke-width:0.4171830869087703;"/><text fill="#000000" font-family="sans-serif" font-size="5.4234" lengthAdjust="spacing" textLength="64.0293" x="674.5892" y="134.1523">timer1Reached = TRUE</text></g><!--link Reset_Sawing_Done to Idle--><g id="link_Reset_Sawing_Done_Idle"><path d="M727.9553,148.125 C732.9657,144.9461 737.5547,140.8952 740.5042,135.7931 C755.481,109.8819 749.8991,89.2396 727.1543,69.7822 C704.3511,50.2789 504.4953,47.544 425.3557,47.2228 " fill="none" id="Reset_Sawing_Done-to-Idle" style="stroke:#181818;stroke-width:0.4171830869087703;"/><polygon fill="#181818" points="422.8526,47.2126,426.6004,48.8966,424.9385,47.2211,426.614,45.5591,422.8526,47.2126" style="stroke:#181818;stroke-width:0.4171830869087703;"/><text fill="#000000" font-family="sans-serif" font-size="5.4234" lengthAdjust="spacing" textLength="47.8147" x="749.265" y="104.695">timer1 completes</text></g><!--SRC=[VLB1QW8n4BtdAmQFfHQbboAqqDeU10LHIm-bBCFkT0raaoKPjP_V9ElQgA6tdJVllNapsS-RBnWEds1MAHAkH4NGu0yyZ4Pma1LlGOGEJE039KjTmxUni7DaGUfsnrqt6AmPBHTpqZLlYpMRrcjSm5vsp4PtZOW_mcRr_lQdN12ZYf9YQKtJibVMUtNdFB8qRaLORgawoW1r1TfmP3H1ENCR4yINKQOAcpOaFkQ8TUfovT0d4xbTdakMUumdKB418H-qnlcx6EtnZAo_hDVF4n5oq0cHstn1pc5D4nWipDu_Hg00coWSP1J9YF-MIQuHWV1PzbXhJUd7Nb8JwnCcjLyNcIgHt1iFlbMy6atzqqLasTb6_9JcZDjL_Nme_KQAc2vOB1kounZkw7CRiR6lxjqPESHPaICkSXRdlv8GEUPK4TeGgjiXe1bUSfhE-fJT_G80]--></g></svg>