<svg xmlns="http://www.w3.org/2000/svg" xmlns:xlink="http://www.w3.org/1999/xlink" contentStyleType="text/css" height="1018px" preserveAspectRatio="none" style="width:749px;height:1018px;background:#FFFFFF;" version="1.1" viewBox="0 0 749 1018" width="749px" zoomAndPan="magnify"><defs/><g><ellipse cx="351.61" cy="16" fill="#222222" rx="10" ry="10" style="stroke:#222222;stroke-width:1.0;"/><g id="Idle"><rect fill="#F1F1F1" height="78.2031" rx="12.5" ry="12.5" style="stroke:#181818;stroke-width:0.5;" width="148.2266" x="277.5" y="87"/><line style="stroke:#181818;stroke-width:0.5;" x1="277.5" x2="425.7266" y1="113.2969" y2="113.2969"/><text fill="#000000" font-family="sans-serif" font-size="14" lengthAdjust="spacing" textLength="25.5186" x="338.854" y="104.9951">Idle</text><text fill="#000000" font-family="sans-serif" font-size="12" lengthAdjust="spacing" textLength="55.7168" x="282.5" y="129.4355">state = 0</text><text fill="#000000" font-family="sans-serif" font-size="12" lengthAdjust="spacing" textLength="125.9707" x="282.5" y="143.4043">startSawing = FALSE</text><text fill="#000000" font-family="sans-serif" font-size="12" lengthAdjust="spacing" textLength="128.2266" x="282.5" y="157.373">sawingDone = FALSE</text></g><g id="Initialize_Sawing"><rect fill="#F1F1F1" height="64.2344" rx="12.5" ry="12.5" style="stroke:#181818;stroke-width:0.5;" width="250.6191" x="136.3" y="242.2"/><line style="stroke:#181818;stroke-width:0.5;" x1="136.3" x2="386.9191" y1="268.4969" y2="268.4969"/><text fill="#000000" font-family="sans-serif" font-size="14" lengthAdjust="spacing" textLength="116.1563" x="203.5314" y="260.1951">Initialize_Sawing</text><text fill="#000000" font-family="sans-serif" font-size="12" lengthAdjust="spacing" textLength="55.7168" x="141.3" y="284.6355">state = 1</text><text fill="#000000" font-family="sans-serif" font-size="12" lengthAdjust="spacing" textLength="230.6191" x="141.3" y="298.6043">actualPos = topPos, timer1 active (2s)</text></g><g id="Move_to_Bottom"><rect fill="#F1F1F1" height="64.2344" rx="12.5" ry="12.5" style="stroke:#181818;stroke-width:0.5;" width="261.9219" x="33.65" y="383.44"/><line style="stroke:#181818;stroke-width:0.5;" x1="33.65" x2="295.5719" y1="409.7369" y2="409.7369"/><text fill="#000000" font-family="sans-serif" font-size="14" lengthAdjust="spacing" textLength="116.9492" x="106.1363" y="401.4351">Move_to_Bottom</text><text fill="#000000" font-family="sans-serif" font-size="12" lengthAdjust="spacing" textLength="55.7168" x="38.65" y="425.8755">state = 2</text><text fill="#000000" font-family="sans-serif" font-size="12" lengthAdjust="spacing" textLength="241.9219" x="38.65" y="439.8443">Moving to bottomPos, timer1 active (1s)</text></g><g id="Pause_at_Bottom"><rect fill="#F1F1F1" height="64.2344" rx="12.5" ry="12.5" style="stroke:#181818;stroke-width:0.5;" width="141.2217" x="7" y="524.67"/><line style="stroke:#181818;stroke-width:0.5;" x1="7" x2="148.2217" y1="550.9669" y2="550.9669"/><text fill="#000000" font-family="sans-serif" font-size="14" lengthAdjust="spacing" textLength="121.2217" x="17" y="542.6651">Pause_at_Bottom</text><text fill="#000000" font-family="sans-serif" font-size="12" lengthAdjust="spacing" textLength="55.7168" x="12" y="567.1055">state = 3</text><text fill="#000000" font-family="sans-serif" font-size="12" lengthAdjust="spacing" textLength="107.0332" x="12" y="581.0743">timer1 active (2s)</text></g><g id="Move_to_Top"><rect fill="#F1F1F1" height="64.2344" rx="12.5" ry="12.5" style="stroke:#181818;stroke-width:0.5;" width="123.5234" x="51.85" y="665.91"/><line style="stroke:#181818;stroke-width:0.5;" x1="51.85" x2="175.3734" y1="692.2069" y2="692.2069"/><text fill="#000000" font-family="sans-serif" font-size="14" lengthAdjust="spacing" textLength="91.6016" x="67.8109" y="683.9051">Move_to_Top</text><text fill="#000000" font-family="sans-serif" font-size="12" lengthAdjust="spacing" textLength="55.7168" x="56.85" y="708.3455">state = 4</text><text fill="#000000" font-family="sans-serif" font-size="12" lengthAdjust="spacing" textLength="103.5234" x="56.85" y="722.3143">Moving to topPos</text></g><g id="Pause_at_Top"><rect fill="#F1F1F1" height="64.2344" rx="12.5" ry="12.5" style="stroke:#181818;stroke-width:0.5;" width="127.0332" x="196.09" y="807.14"/><line style="stroke:#181818;stroke-width:0.5;" x1="196.09" x2="323.1232" y1="833.4369" y2="833.4369"/><text fill="#000000" font-family="sans-serif" font-size="14" lengthAdjust="spacing" textLength="95.874" x="211.6696" y="825.1351">Pause_at_Top</text><text fill="#000000" font-family="sans-serif" font-size="12" lengthAdjust="spacing" textLength="55.7168" x="201.09" y="849.5755">state = 5</text><text fill="#000000" font-family="sans-serif" font-size="12" lengthAdjust="spacing" textLength="107.0332" x="201.09" y="863.5443">timer1 active (2s)</text></g><g id="Reset_and_Restart"><rect fill="#F1F1F1" height="64.2344" rx="12.5" ry="12.5" style="stroke:#181818;stroke-width:0.5;" width="151.0244" x="275.1" y="948.38"/><line style="stroke:#181818;stroke-width:0.5;" x1="275.1" x2="426.1244" y1="974.6769" y2="974.6769"/><text fill="#000000" font-family="sans-serif" font-size="14" lengthAdjust="spacing" textLength="131.0244" x="285.1" y="966.3751">Reset_and_Restart</text><text fill="#000000" font-family="sans-serif" font-size="12" lengthAdjust="spacing" textLength="55.7168" x="280.1" y="990.8155">state = 6</text><text fill="#000000" font-family="sans-serif" font-size="12" lengthAdjust="spacing" textLength="107.0332" x="280.1" y="1004.7843">timer1 active (2s)</text></g><!--link *start* to Idle--><g id="link_*start*_Idle"><path d="M351.61,26.22 C351.61,39.59 351.61,59.17 351.61,80.97 " fill="none" id="*start*-to-Idle" style="stroke:#181818;stroke-width:1.0;"/><polygon fill="#181818" points="351.61,86.97,355.61,77.97,351.61,81.97,347.61,77.97,351.61,86.97" style="stroke:#181818;stroke-width:1.0;"/></g><!--link Idle to Initialize_Sawing--><g id="link_Idle_Initialize_Sawing"><path d="M304.59,165.7 C295.94,174.63 287.73,184.64 281.61,195.2 C273.4,209.38 269.6609,221.0195 266.7809,235.8895 " fill="none" id="Idle-to-Initialize_Sawing" style="stroke:#181818;stroke-width:1.0;"/><polygon fill="#181818" points="265.64,241.78,271.2783,233.7048,266.5907,236.8712,263.4243,232.1836,265.64,241.78" style="stroke:#181818;stroke-width:1.0;"/><text fill="#000000" font-family="sans-serif" font-size="13" lengthAdjust="spacing" textLength="131.0918" x="282.61" y="208.2669">startSawing = TRUE</text></g><!--link Initialize_Sawing to Move_to_Bottom--><g id="link_Initialize_Sawing_Move_to_Bottom"><path d="M239.6,306.92 C223.73,329.7 205.8203,355.4073 189.9603,378.1673 " fill="none" id="Initialize_Sawing-to-Move_to_Bottom" style="stroke:#181818;stroke-width:1.0;"/><polygon fill="#181818" points="186.53,383.09,194.9573,377.9928,189.3886,378.9878,188.3937,373.4191,186.53,383.09" style="stroke:#181818;stroke-width:1.0;"/><text fill="#000000" font-family="sans-serif" font-size="13" lengthAdjust="spacing" textLength="149.792" x="220.61" y="349.5069">timer1reached = TRUE</text></g><!--link Move_to_Bottom to Pause_at_Bottom--><g id="link_Move_to_Bottom_Pause_at_Bottom"><path d="M95.79,447.97 C84.88,456.06 75.07,465.89 68.61,477.67 C60.86,491.79 60.7459,503.6614 64.4059,518.6414 " fill="none" id="Move_to_Bottom-to-Pause_at_Bottom" style="stroke:#181818;stroke-width:1.0;"/><polygon fill="#181818" points="65.83,524.47,67.5796,514.7778,64.6433,519.6129,59.8082,516.6765,65.83,524.47" style="stroke:#181818;stroke-width:1.0;"/><text fill="#000000" font-family="sans-serif" font-size="13" lengthAdjust="spacing" textLength="344.7412" x="69.61" y="490.7369">actualPos &lt;= bottomPos and timer1reached = TRUE</text></g><!--link Pause_at_Bottom to Move_to_Top--><g id="link_Pause_at_Bottom_Move_to_Top"><path d="M85.78,589.38 C91.67,612.17 98.0886,636.9909 103.9686,659.7409 " fill="none" id="Pause_at_Bottom-to-Move_to_Top" style="stroke:#181818;stroke-width:1.0;"/><polygon fill="#181818" points="105.47,665.55,107.0906,655.8354,104.2188,660.7091,99.3451,657.8373,105.47,665.55" style="stroke:#181818;stroke-width:1.0;"/><text fill="#000000" font-family="sans-serif" font-size="13" lengthAdjust="spacing" textLength="149.792" x="99.61" y="631.9769">timer1reached = TRUE</text></g><!--link Move_to_Top to Pause_at_Top--><g id="link_Move_to_Top_Pause_at_Top"><path d="M146.74,730.62 C170.63,753.41 198.4085,779.8886 222.2685,802.6486 " fill="none" id="Move_to_Top-to-Pause_at_Top" style="stroke:#181818;stroke-width:1.0;"/><polygon fill="#181818" points="226.61,806.79,222.8586,797.6836,222.9921,803.3388,217.3368,803.4723,226.61,806.79" style="stroke:#181818;stroke-width:1.0;"/><text fill="#000000" font-family="sans-serif" font-size="13" lengthAdjust="spacing" textLength="136.5127" x="196.61" y="773.2069">actualPos &gt;= topPos</text></g><!--link Pause_at_Top to Reset_and_Restart--><g id="link_Pause_at_Top_Reset_and_Restart"><path d="M255.09,871.66 C254.41,886.66 255.86,904.35 263.61,918.38 C270.04,930.01 274.9939,936.2464 285.6139,944.5064 " fill="none" id="Pause_at_Top-to-Reset_and_Restart" style="stroke:#181818;stroke-width:1.0;"/><polygon fill="#181818" points="290.35,948.19,285.7016,939.5071,286.4032,945.1203,280.7901,945.8219,290.35,948.19" style="stroke:#181818;stroke-width:1.0;"/><text fill="#000000" font-family="sans-serif" font-size="13" lengthAdjust="spacing" textLength="149.792" x="264.61" y="914.4469">timer1reached = TRUE</text></g><!--link Reset_and_Restart to Idle--><g id="link_Reset_and_Restart_Idle"><path d="M392.97,948.16 C402.52,939.42 411.82,929.29 418.61,918.38 C437.67,887.75 440.61,876.33 440.61,840.26 C440.61,273.32 440.61,273.32 440.61,273.32 C440.61,237.25 436.72,226.4 418.61,195.2 C412.53,184.73 408.5689,179.0716 400.1589,170.0816 " fill="none" id="Reset_and_Restart-to-Idle" style="stroke:#181818;stroke-width:1.0;"/><polygon fill="#181818" points="396.06,165.7,399.2873,175.0051,399.4758,169.3514,405.1295,169.5398,396.06,165.7" style="stroke:#181818;stroke-width:1.0;"/><text fill="#000000" font-family="sans-serif" font-size="13" lengthAdjust="spacing" textLength="299.5332" x="441.61" y="561.3569">timer1reached = TRUE and reset sawingDone</text></g><!--SRC=[XLDDImCn4BtdLynHnO9RFmvY2ueL18NIrfD8YDr10zjDsKmh-EjDietPPBDwMSAyD- -zcMnUJzvWD9h2OraXO_OBrw194C84pZg5XfRYIzOVflnm-xIS_KAkUgzgZ14dMakIefBVo0_DgTHgyJ83uvidkX155XLhsebghhHXaDgQmocGt61JM4Zk4Ox6-ZZJQdCzgproKlnE4QcDKMix6nJhJomFiHZhqNoaSHyo1QjE2jvTAHUeC86IHfjcBdOQkQ0W5eQxcGGz47KvaBGluQEUPx3Cdb9ITqihjVrtHIt7cruazR2SzgeYE5f1om_pJ_tjTcQClIvJuA_flDy2DH8t- -JcP7_8mG5pJ6zznOPr8ly-pJ-v0LztrOtjwhol7m00]--></g></svg>