<svg xmlns="http://www.w3.org/2000/svg" xmlns:xlink="http://www.w3.org/1999/xlink" contentStyleType="text/css" height="2012px" preserveAspectRatio="none" style="width:1302px;height:2012px;background:#FFFFFF;" version="1.1" viewBox="0 0 1302 2012" width="1302px" zoomAndPan="magnify"><defs/><g><rect fill="#FFFFFF" height="565.7969" style="stroke:#181818;stroke-width:1.0;" width="10" x="949.5122" y="184.6953"/><rect fill="#FFFFFF" height="1003.1953" style="stroke:#181818;stroke-width:1.0;" width="10" x="949.5122" y="881.0234"/><rect fill="none" height="101.3984" style="stroke:#000000;stroke-width:1.5;" width="406.0391" x="879.6768" y="241.8281"/><rect fill="none" height="365.1328" style="stroke:#000000;stroke-width:1.5;" width="1068.0791" x="182.9556" y="357.2266"/><rect fill="none" height="233.6016" style="stroke:#000000;stroke-width:1.5;" width="371.3579" x="869.6768" y="423.4922"/><rect fill="none" height="116.2031" style="stroke:#000000;stroke-width:1.5;" width="351.5571" x="879.6768" y="489.7578"/><rect fill="none" height="101.3984" style="stroke:#000000;stroke-width:1.5;" width="406.0391" x="879.6768" y="938.1563"/><rect fill="none" height="365.1328" style="stroke:#000000;stroke-width:1.5;" width="933.8994" x="317.1353" y="1053.5547"/><rect fill="none" height="233.6016" style="stroke:#000000;stroke-width:1.5;" width="371.3579" x="869.6768" y="1119.8203"/><rect fill="none" height="116.2031" style="stroke:#000000;stroke-width:1.5;" width="351.5571" x="879.6768" y="1186.0859"/><rect fill="none" height="365.1328" style="stroke:#000000;stroke-width:1.5;" width="933.8994" x="317.1353" y="1490.9531"/><rect fill="none" height="233.6016" style="stroke:#000000;stroke-width:1.5;" width="371.3579" x="869.6768" y="1557.2188"/><rect fill="none" height="116.2031" style="stroke:#000000;stroke-width:1.5;" width="351.5571" x="879.6768" y="1623.4844"/><line style="stroke:#181818;stroke-width:0.5;stroke-dasharray:5.0,5.0;" x1="57" x2="57" y1="81.2969" y2="1931.3516"/><line style="stroke:#181818;stroke-width:0.5;stroke-dasharray:5.0,5.0;" x1="254.9556" x2="254.9556" y1="81.2969" y2="1931.3516"/><line style="stroke:#181818;stroke-width:0.5;stroke-dasharray:5.0,5.0;" x1="344.1353" x2="344.1353" y1="81.2969" y2="1931.3516"/><line style="stroke:#181818;stroke-width:0.5;stroke-dasharray:5.0,5.0;" x1="953.6768" x2="953.6768" y1="81.2969" y2="1931.3516"/><text fill="#000000" font-family="sans-serif" font-size="14" lengthAdjust="spacing" textLength="99.0391" x="5" y="77.9951">User Interface</text><ellipse cx="57.5195" cy="13.5" fill="#E2E2F0" rx="8" ry="8" style="stroke:#181818;stroke-width:0.5;"/><path d="M57.5195,21.5 L57.5195,48.5 M44.5195,29.5 L70.5195,29.5 M57.5195,48.5 L44.5195,63.5 M57.5195,48.5 L70.5195,63.5 " fill="none" style="stroke:#181818;stroke-width:0.5;"/><text fill="#000000" font-family="sans-serif" font-size="14" lengthAdjust="spacing" textLength="99.0391" x="5" y="1943.3467">User Interface</text><ellipse cx="57.5195" cy="1955.1484" fill="#E2E2F0" rx="8" ry="8" style="stroke:#181818;stroke-width:0.5;"/><path d="M57.5195,1963.1484 L57.5195,1990.1484 M44.5195,1971.1484 L70.5195,1971.1484 M57.5195,1990.1484 L44.5195,2005.1484 M57.5195,1990.1484 L70.5195,2005.1484 " fill="none" style="stroke:#181818;stroke-width:0.5;"/><text fill="#000000" font-family="sans-serif" font-size="14" lengthAdjust="spacing" textLength="118.1797" x="192.9556" y="77.9951">Saw Length Stop</text><ellipse cx="255.0454" cy="13.5" fill="#E2E2F0" rx="8" ry="8" style="stroke:#181818;stroke-width:0.5;"/><path d="M255.0454,21.5 L255.0454,48.5 M242.0454,29.5 L268.0454,29.5 M255.0454,48.5 L242.0454,63.5 M255.0454,48.5 L268.0454,63.5 " fill="none" style="stroke:#181818;stroke-width:0.5;"/><text fill="#000000" font-family="sans-serif" font-size="14" lengthAdjust="spacing" textLength="118.1797" x="192.9556" y="1943.3467">Saw Length Stop</text><ellipse cx="255.0454" cy="1955.1484" fill="#E2E2F0" rx="8" ry="8" style="stroke:#181818;stroke-width:0.5;"/><path d="M255.0454,1963.1484 L255.0454,1990.1484 M242.0454,1971.1484 L268.0454,1971.1484 M255.0454,1990.1484 L242.0454,2005.1484 M255.0454,1990.1484 L268.0454,2005.1484 " fill="none" style="stroke:#181818;stroke-width:0.5;"/><text fill="#000000" font-family="sans-serif" font-size="14" lengthAdjust="spacing" textLength="28.916" x="327.1353" y="77.9951">Saw</text><ellipse cx="344.5933" cy="13.5" fill="#E2E2F0" rx="8" ry="8" style="stroke:#181818;stroke-width:0.5;"/><path d="M344.5933,21.5 L344.5933,48.5 M331.5933,29.5 L357.5933,29.5 M344.5933,48.5 L331.5933,63.5 M344.5933,48.5 L357.5933,63.5 " fill="none" style="stroke:#181818;stroke-width:0.5;"/><text fill="#000000" font-family="sans-serif" font-size="14" lengthAdjust="spacing" textLength="28.916" x="327.1353" y="1943.3467">Saw</text><ellipse cx="344.5933" cy="1955.1484" fill="#E2E2F0" rx="8" ry="8" style="stroke:#181818;stroke-width:0.5;"/><path d="M344.5933,1963.1484 L344.5933,1990.1484 M331.5933,1971.1484 L357.5933,1971.1484 M344.5933,1990.1484 L331.5933,2005.1484 M344.5933,1990.1484 L357.5933,2005.1484 " fill="none" style="stroke:#181818;stroke-width:0.5;"/><rect fill="#E2E2F0" height="30.2969" rx="2.5" ry="2.5" style="stroke:#181818;stroke-width:0.5;" width="129.6709" x="889.6768" y="50"/><text fill="#000000" font-family="sans-serif" font-size="14" lengthAdjust="spacing" textLength="115.6709" x="896.6768" y="69.9951">POU_MoveToPos</text><rect fill="#E2E2F0" height="30.2969" rx="2.5" ry="2.5" style="stroke:#181818;stroke-width:0.5;" width="129.6709" x="889.6768" y="1930.3516"/><text fill="#000000" font-family="sans-serif" font-size="14" lengthAdjust="spacing" textLength="115.6709" x="896.6768" y="1950.3467">POU_MoveToPos</text><rect fill="#FFFFFF" height="565.7969" style="stroke:#181818;stroke-width:1.0;" width="10" x="949.5122" y="184.6953"/><rect fill="#FFFFFF" height="1003.1953" style="stroke:#181818;stroke-width:1.0;" width="10" x="949.5122" y="881.0234"/><rect fill="#EEEEEE" height="3" style="stroke:#EEEEEE;stroke-width:1.0;" width="1295.7158" x="0" y="111.8633"/><line style="stroke:#000000;stroke-width:1.0;" x1="0" x2="1295.7158" y1="111.8633" y2="111.8633"/><line style="stroke:#000000;stroke-width:1.0;" x1="0" x2="1295.7158" y1="114.8633" y2="114.8633"/><rect fill="#EEEEEE" height="23.1328" style="stroke:#000000;stroke-width:2.0;" width="181.2163" x="557.2498" y="101.2969"/><text fill="#000000" font-family="sans-serif" font-size="13" font-weight="bold" lengthAdjust="spacing" textLength="162.6904" x="563.2498" y="117.3638">Saw Length Stop Task</text><polygon fill="#181818" points="243.0454,151.5625,253.0454,155.5625,243.0454,159.5625,247.0454,155.5625" style="stroke:#181818;stroke-width:1.0;"/><line style="stroke:#181818;stroke-width:1.0;" x1="57.5195" x2="249.0454" y1="155.5625" y2="155.5625"/><text fill="#000000" font-family="sans-serif" font-size="13" lengthAdjust="spacing" textLength="139.6929" x="64.5195" y="150.4966">Start stop positioning</text><polygon fill="#181818" points="937.5122,180.6953,947.5122,184.6953,937.5122,188.6953,941.5122,184.6953" style="stroke:#181818;stroke-width:1.0;"/><line style="stroke:#181818;stroke-width:1.0;" x1="255.0454" x2="943.5122" y1="184.6953" y2="184.6953"/><text fill="#000000" font-family="sans-serif" font-size="13" lengthAdjust="spacing" textLength="675.4668" x="262.0454" y="179.6294">Set `requiredPos = gvl.requiredSawingLength`, `actualPos = sawingStopPos`, `speed = movingSpeed`</text><line style="stroke:#181818;stroke-width:1.0;" x1="959.5122" x2="1001.5122" y1="213.8281" y2="213.8281"/><line style="stroke:#181818;stroke-width:1.0;" x1="1001.5122" x2="1001.5122" y1="213.8281" y2="226.8281"/><line style="stroke:#181818;stroke-width:1.0;" x1="960.5122" x2="1001.5122" y1="226.8281" y2="226.8281"/><polygon fill="#181818" points="970.5122,222.8281,960.5122,226.8281,970.5122,230.8281,966.5122,226.8281" style="stroke:#181818;stroke-width:1.0;"/><text fill="#000000" font-family="sans-serif" font-size="13" lengthAdjust="spacing" textLength="241.8013" x="966.5122" y="208.7622">Check if `actualPos` &lt; `requiredPos`</text><path d="M879.6768,241.8281 L944.1196,241.8281 L944.1196,248.9609 L934.1196,258.9609 L879.6768,258.9609 L879.6768,241.8281 " fill="#EEEEEE" style="stroke:#000000;stroke-width:1.5;"/><rect fill="none" height="101.3984" style="stroke:#000000;stroke-width:1.5;" width="406.0391" x="879.6768" y="241.8281"/><text fill="#000000" font-family="sans-serif" font-size="13" font-weight="bold" lengthAdjust="spacing" textLength="19.4429" x="894.6768" y="254.895">alt</text><text fill="#000000" font-family="sans-serif" font-size="11" font-weight="bold" lengthAdjust="spacing" textLength="169.877" x="959.1196" y="254.0386">[Start Timer if not running]</text><line style="stroke:#181818;stroke-width:1.0;" x1="959.5122" x2="1001.5122" y1="280.0938" y2="280.0938"/><line style="stroke:#181818;stroke-width:1.0;" x1="1001.5122" x2="1001.5122" y1="280.0938" y2="293.0938"/><line style="stroke:#181818;stroke-width:1.0;" x1="960.5122" x2="1001.5122" y1="293.0938" y2="293.0938"/><polygon fill="#181818" points="970.5122,289.0938,960.5122,293.0938,970.5122,297.0938,966.5122,293.0938" style="stroke:#181818;stroke-width:1.0;"/><text fill="#000000" font-family="sans-serif" font-size="13" lengthAdjust="spacing" textLength="165.604" x="966.5122" y="275.0278">Set `timer1start = TRUE`</text><line style="stroke:#181818;stroke-width:1.0;" x1="959.5122" x2="1001.5122" y1="322.2266" y2="322.2266"/><line style="stroke:#181818;stroke-width:1.0;" x1="1001.5122" x2="1001.5122" y1="322.2266" y2="335.2266"/><line style="stroke:#181818;stroke-width:1.0;" x1="960.5122" x2="1001.5122" y1="335.2266" y2="335.2266"/><polygon fill="#181818" points="970.5122,331.2266,960.5122,335.2266,970.5122,339.2266,966.5122,335.2266" style="stroke:#181818;stroke-width:1.0;"/><text fill="#000000" font-family="sans-serif" font-size="13" lengthAdjust="spacing" textLength="297.2036" x="966.5122" y="317.1606">Calculate `calculatedTime` based on `speed`</text><path d="M182.9556,357.2266 L259.5796,357.2266 L259.5796,364.3594 L249.5796,374.3594 L182.9556,374.3594 L182.9556,357.2266 " fill="#EEEEEE" style="stroke:#000000;stroke-width:1.5;"/><rect fill="none" height="365.1328" style="stroke:#000000;stroke-width:1.5;" width="1068.0791" x="182.9556" y="357.2266"/><text fill="#000000" font-family="sans-serif" font-size="13" font-weight="bold" lengthAdjust="spacing" textLength="31.624" x="197.9556" y="370.2935">loop</text><text fill="#000000" font-family="sans-serif" font-size="11" font-weight="bold" lengthAdjust="spacing" textLength="265.1924" x="274.5796" y="369.437">[Until stop reaches required stop position]</text><line style="stroke:#181818;stroke-width:1.0;" x1="959.5122" x2="1001.5122" y1="395.4922" y2="395.4922"/><line style="stroke:#181818;stroke-width:1.0;" x1="1001.5122" x2="1001.5122" y1="395.4922" y2="408.4922"/><line style="stroke:#181818;stroke-width:1.0;" x1="960.5122" x2="1001.5122" y1="408.4922" y2="408.4922"/><polygon fill="#181818" points="970.5122,404.4922,960.5122,408.4922,970.5122,412.4922,966.5122,408.4922" style="stroke:#181818;stroke-width:1.0;"/><text fill="#000000" font-family="sans-serif" font-size="13" lengthAdjust="spacing" textLength="225.0308" x="966.5122" y="390.4263">`timer1` regulates update interval</text><path d="M869.6768,423.4922 L934.1196,423.4922 L934.1196,430.625 L924.1196,440.625 L869.6768,440.625 L869.6768,423.4922 " fill="#EEEEEE" style="stroke:#000000;stroke-width:1.5;"/><rect fill="none" height="233.6016" style="stroke:#000000;stroke-width:1.5;" width="371.3579" x="869.6768" y="423.4922"/><text fill="#000000" font-family="sans-serif" font-size="13" font-weight="bold" lengthAdjust="spacing" textLength="19.4429" x="884.6768" y="436.5591">alt</text><text fill="#000000" font-family="sans-serif" font-size="11" font-weight="bold" lengthAdjust="spacing" textLength="99.4995" x="949.1196" y="435.7026">[Timer reached]</text><line style="stroke:#181818;stroke-width:1.0;" x1="959.5122" x2="1001.5122" y1="461.7578" y2="461.7578"/><line style="stroke:#181818;stroke-width:1.0;" x1="1001.5122" x2="1001.5122" y1="461.7578" y2="474.7578"/><line style="stroke:#181818;stroke-width:1.0;" x1="960.5122" x2="1001.5122" y1="474.7578" y2="474.7578"/><polygon fill="#181818" points="970.5122,470.7578,960.5122,474.7578,970.5122,478.7578,966.5122,474.7578" style="stroke:#181818;stroke-width:1.0;"/><text fill="#000000" font-family="sans-serif" font-size="13" lengthAdjust="spacing" textLength="170.9805" x="966.5122" y="456.6919">Set `timer1start = FALSE`</text><path d="M879.6768,489.7578 L944.1196,489.7578 L944.1196,496.8906 L934.1196,506.8906 L879.6768,506.8906 L879.6768,489.7578 " fill="#EEEEEE" style="stroke:#000000;stroke-width:1.5;"/><rect fill="none" height="116.2031" style="stroke:#000000;stroke-width:1.5;" width="351.5571" x="879.6768" y="489.7578"/><text fill="#000000" font-family="sans-serif" font-size="13" font-weight="bold" lengthAdjust="spacing" textLength="19.4429" x="894.6768" y="502.8247">alt</text><text fill="#000000" font-family="sans-serif" font-size="11" font-weight="bold" lengthAdjust="spacing" textLength="184.6099" x="959.1196" y="501.9683">[`requiredPos` &lt; `actualPos`]</text><line style="stroke:#181818;stroke-width:1.0;" x1="959.5122" x2="1001.5122" y1="528.0234" y2="528.0234"/><line style="stroke:#181818;stroke-width:1.0;" x1="1001.5122" x2="1001.5122" y1="528.0234" y2="541.0234"/><line style="stroke:#181818;stroke-width:1.0;" x1="960.5122" x2="1001.5122" y1="541.0234" y2="541.0234"/><polygon fill="#181818" points="970.5122,537.0234,960.5122,541.0234,970.5122,545.0234,966.5122,541.0234" style="stroke:#181818;stroke-width:1.0;"/><text fill="#000000" font-family="sans-serif" font-size="13" lengthAdjust="spacing" textLength="242.4551" x="966.5122" y="522.9575">Decrement `newpos = actualPos - 1`</text><line style="stroke:#000000;stroke-width:1.0;stroke-dasharray:2.0,2.0;" x1="879.6768" x2="1231.2339" y1="550.0234" y2="550.0234"/><text fill="#000000" font-family="sans-serif" font-size="11" font-weight="bold" lengthAdjust="spacing" textLength="184.6099" x="884.6768" y="560.2339">[`requiredPos` &gt; `actualPos`]</text><line style="stroke:#181818;stroke-width:1.0;" x1="959.5122" x2="1001.5122" y1="584.9609" y2="584.9609"/><line style="stroke:#181818;stroke-width:1.0;" x1="1001.5122" x2="1001.5122" y1="584.9609" y2="597.9609"/><line style="stroke:#181818;stroke-width:1.0;" x1="960.5122" x2="1001.5122" y1="597.9609" y2="597.9609"/><polygon fill="#181818" points="970.5122,593.9609,960.5122,597.9609,970.5122,601.9609,966.5122,597.9609" style="stroke:#181818;stroke-width:1.0;"/><text fill="#000000" font-family="sans-serif" font-size="13" lengthAdjust="spacing" textLength="242.7217" x="966.5122" y="579.895">Increment `newpos = actualPos + 1`</text><line style="stroke:#000000;stroke-width:1.0;stroke-dasharray:2.0,2.0;" x1="869.6768" x2="1241.0347" y1="613.9609" y2="613.9609"/><line style="stroke:#181818;stroke-width:1.0;" x1="959.5122" x2="1001.5122" y1="636.0938" y2="636.0938"/><line style="stroke:#181818;stroke-width:1.0;" x1="1001.5122" x2="1001.5122" y1="636.0938" y2="649.0938"/><line style="stroke:#181818;stroke-width:1.0;" x1="960.5122" x2="1001.5122" y1="649.0938" y2="649.0938"/><polygon fill="#181818" points="970.5122,645.0938,960.5122,649.0938,970.5122,653.0938,966.5122,649.0938" style="stroke:#181818;stroke-width:1.0;"/><text fill="#000000" font-family="sans-serif" font-size="13" lengthAdjust="spacing" textLength="252.5225" x="966.5122" y="631.0278">Set `newpos = actualPos` (no change)</text><polygon fill="#181818" points="266.0454,681.2266,256.0454,685.2266,266.0454,689.2266,262.0454,685.2266" style="stroke:#181818;stroke-width:1.0;"/><line style="stroke:#181818;stroke-width:1.0;stroke-dasharray:2.0,2.0;" x1="260.0454" x2="948.5122" y1="685.2266" y2="685.2266"/><text fill="#000000" font-family="sans-serif" font-size="13" lengthAdjust="spacing" textLength="110.9316" x="272.0454" y="680.1606">Return `newpos`</text><polygon fill="#181818" points="937.5122,710.3594,947.5122,714.3594,937.5122,718.3594,941.5122,714.3594" style="stroke:#181818;stroke-width:1.0;"/><line style="stroke:#181818;stroke-width:1.0;" x1="255.0454" x2="943.5122" y1="714.3594" y2="714.3594"/><text fill="#000000" font-family="sans-serif" font-size="13" lengthAdjust="spacing" textLength="225.5005" x="262.0454" y="709.2935">Update `actualPos` with `newpos`</text><polygon fill="#181818" points="266.0454,746.4922,256.0454,750.4922,266.0454,754.4922,262.0454,750.4922" style="stroke:#181818;stroke-width:1.0;"/><line style="stroke:#181818;stroke-width:1.0;" x1="260.0454" x2="953.5122" y1="750.4922" y2="750.4922"/><text fill="#000000" font-family="sans-serif" font-size="13" lengthAdjust="spacing" textLength="330.2432" x="272.0454" y="745.4263">Final position reached (`actualPos = requiredPos`)</text><polygon fill="#181818" points="68.5195,775.625,58.5195,779.625,68.5195,783.625,64.5195,779.625" style="stroke:#181818;stroke-width:1.0;"/><line style="stroke:#181818;stroke-width:1.0;" x1="62.5195" x2="254.0454" y1="779.625" y2="779.625"/><text fill="#000000" font-family="sans-serif" font-size="13" lengthAdjust="spacing" textLength="173.5259" x="74.5195" y="774.5591">Move product against stop</text><rect fill="#EEEEEE" height="3" style="stroke:#EEEEEE;stroke-width:1.0;" width="1295.7158" x="0" y="808.1914"/><line style="stroke:#000000;stroke-width:1.0;" x1="0" x2="1295.7158" y1="808.1914" y2="808.1914"/><line style="stroke:#000000;stroke-width:1.0;" x1="0" x2="1295.7158" y1="811.1914" y2="811.1914"/><rect fill="#EEEEEE" height="23.1328" style="stroke:#000000;stroke-width:2.0;" width="341.0186" x="477.3486" y="797.625"/><text fill="#000000" font-family="sans-serif" font-size="13" font-weight="bold" lengthAdjust="spacing" textLength="322.4927" x="483.3486" y="813.6919">Saw Task (Moving Saw to Bottom and Back)</text><polygon fill="#181818" points="332.5933,847.8906,342.5933,851.8906,332.5933,855.8906,336.5933,851.8906" style="stroke:#181818;stroke-width:1.0;"/><line style="stroke:#181818;stroke-width:1.0;" x1="57.5195" x2="338.5933" y1="851.8906" y2="851.8906"/><text fill="#000000" font-family="sans-serif" font-size="13" lengthAdjust="spacing" textLength="149.4365" x="64.5195" y="846.8247">Initiate sawing process</text><polygon fill="#181818" points="937.5122,877.0234,947.5122,881.0234,937.5122,885.0234,941.5122,881.0234" style="stroke:#181818;stroke-width:1.0;"/><line style="stroke:#181818;stroke-width:1.0;" x1="344.5933" x2="943.5122" y1="881.0234" y2="881.0234"/><text fill="#000000" font-family="sans-serif" font-size="13" lengthAdjust="spacing" textLength="541.3218" x="351.5933" y="875.9575">Set `requiredPos = bottomPos`, `actualPos = topPos`, `speed = gvl.sawingSpeed`</text><line style="stroke:#181818;stroke-width:1.0;" x1="959.5122" x2="1001.5122" y1="910.1563" y2="910.1563"/><line style="stroke:#181818;stroke-width:1.0;" x1="1001.5122" x2="1001.5122" y1="910.1563" y2="923.1563"/><line style="stroke:#181818;stroke-width:1.0;" x1="960.5122" x2="1001.5122" y1="923.1563" y2="923.1563"/><polygon fill="#181818" points="970.5122,919.1563,960.5122,923.1563,970.5122,927.1563,966.5122,923.1563" style="stroke:#181818;stroke-width:1.0;"/><text fill="#000000" font-family="sans-serif" font-size="13" lengthAdjust="spacing" textLength="241.8013" x="966.5122" y="905.0903">Check if `actualPos` &lt; `requiredPos`</text><path d="M879.6768,938.1563 L944.1196,938.1563 L944.1196,945.2891 L934.1196,955.2891 L879.6768,955.2891 L879.6768,938.1563 " fill="#EEEEEE" style="stroke:#000000;stroke-width:1.5;"/><rect fill="none" height="101.3984" style="stroke:#000000;stroke-width:1.5;" width="406.0391" x="879.6768" y="938.1563"/><text fill="#000000" font-family="sans-serif" font-size="13" font-weight="bold" lengthAdjust="spacing" textLength="19.4429" x="894.6768" y="951.2231">alt</text><text fill="#000000" font-family="sans-serif" font-size="11" font-weight="bold" lengthAdjust="spacing" textLength="169.877" x="959.1196" y="950.3667">[Start Timer if not running]</text><line style="stroke:#181818;stroke-width:1.0;" x1="959.5122" x2="1001.5122" y1="976.4219" y2="976.4219"/><line style="stroke:#181818;stroke-width:1.0;" x1="1001.5122" x2="1001.5122" y1="976.4219" y2="989.4219"/><line style="stroke:#181818;stroke-width:1.0;" x1="960.5122" x2="1001.5122" y1="989.4219" y2="989.4219"/><polygon fill="#181818" points="970.5122,985.4219,960.5122,989.4219,970.5122,993.4219,966.5122,989.4219" style="stroke:#181818;stroke-width:1.0;"/><text fill="#000000" font-family="sans-serif" font-size="13" lengthAdjust="spacing" textLength="165.604" x="966.5122" y="971.356">Set `timer1start = TRUE`</text><line style="stroke:#181818;stroke-width:1.0;" x1="959.5122" x2="1001.5122" y1="1018.5547" y2="1018.5547"/><line style="stroke:#181818;stroke-width:1.0;" x1="1001.5122" x2="1001.5122" y1="1018.5547" y2="1031.5547"/><line style="stroke:#181818;stroke-width:1.0;" x1="960.5122" x2="1001.5122" y1="1031.5547" y2="1031.5547"/><polygon fill="#181818" points="970.5122,1027.5547,960.5122,1031.5547,970.5122,1035.5547,966.5122,1031.5547" style="stroke:#181818;stroke-width:1.0;"/><text fill="#000000" font-family="sans-serif" font-size="13" lengthAdjust="spacing" textLength="297.2036" x="966.5122" y="1013.4888">Calculate `calculatedTime` based on `speed`</text><path d="M317.1353,1053.5547 L393.7593,1053.5547 L393.7593,1060.6875 L383.7593,1070.6875 L317.1353,1070.6875 L317.1353,1053.5547 " fill="#EEEEEE" style="stroke:#000000;stroke-width:1.5;"/><rect fill="none" height="365.1328" style="stroke:#000000;stroke-width:1.5;" width="933.8994" x="317.1353" y="1053.5547"/><text fill="#000000" font-family="sans-serif" font-size="13" font-weight="bold" lengthAdjust="spacing" textLength="31.624" x="332.1353" y="1066.6216">loop</text><text fill="#000000" font-family="sans-serif" font-size="11" font-weight="bold" lengthAdjust="spacing" textLength="202.0391" x="408.7593" y="1065.7651">[Until saw reaches `bottomPos`]</text><line style="stroke:#181818;stroke-width:1.0;" x1="959.5122" x2="1001.5122" y1="1091.8203" y2="1091.8203"/><line style="stroke:#181818;stroke-width:1.0;" x1="1001.5122" x2="1001.5122" y1="1091.8203" y2="1104.8203"/><line style="stroke:#181818;stroke-width:1.0;" x1="960.5122" x2="1001.5122" y1="1104.8203" y2="1104.8203"/><polygon fill="#181818" points="970.5122,1100.8203,960.5122,1104.8203,970.5122,1108.8203,966.5122,1104.8203" style="stroke:#181818;stroke-width:1.0;"/><text fill="#000000" font-family="sans-serif" font-size="13" lengthAdjust="spacing" textLength="225.0308" x="966.5122" y="1086.7544">`timer1` regulates update interval</text><path d="M869.6768,1119.8203 L934.1196,1119.8203 L934.1196,1126.9531 L924.1196,1136.9531 L869.6768,1136.9531 L869.6768,1119.8203 " fill="#EEEEEE" style="stroke:#000000;stroke-width:1.5;"/><rect fill="none" height="233.6016" style="stroke:#000000;stroke-width:1.5;" width="371.3579" x="869.6768" y="1119.8203"/><text fill="#000000" font-family="sans-serif" font-size="13" font-weight="bold" lengthAdjust="spacing" textLength="19.4429" x="884.6768" y="1132.8872">alt</text><text fill="#000000" font-family="sans-serif" font-size="11" font-weight="bold" lengthAdjust="spacing" textLength="99.4995" x="949.1196" y="1132.0308">[Timer reached]</text><line style="stroke:#181818;stroke-width:1.0;" x1="959.5122" x2="1001.5122" y1="1158.0859" y2="1158.0859"/><line style="stroke:#181818;stroke-width:1.0;" x1="1001.5122" x2="1001.5122" y1="1158.0859" y2="1171.0859"/><line style="stroke:#181818;stroke-width:1.0;" x1="960.5122" x2="1001.5122" y1="1171.0859" y2="1171.0859"/><polygon fill="#181818" points="970.5122,1167.0859,960.5122,1171.0859,970.5122,1175.0859,966.5122,1171.0859" style="stroke:#181818;stroke-width:1.0;"/><text fill="#000000" font-family="sans-serif" font-size="13" lengthAdjust="spacing" textLength="170.9805" x="966.5122" y="1153.02">Set `timer1start = FALSE`</text><path d="M879.6768,1186.0859 L944.1196,1186.0859 L944.1196,1193.2188 L934.1196,1203.2188 L879.6768,1203.2188 L879.6768,1186.0859 " fill="#EEEEEE" style="stroke:#000000;stroke-width:1.5;"/><rect fill="none" height="116.2031" style="stroke:#000000;stroke-width:1.5;" width="351.5571" x="879.6768" y="1186.0859"/><text fill="#000000" font-family="sans-serif" font-size="13" font-weight="bold" lengthAdjust="spacing" textLength="19.4429" x="894.6768" y="1199.1528">alt</text><text fill="#000000" font-family="sans-serif" font-size="11" font-weight="bold" lengthAdjust="spacing" textLength="184.6099" x="959.1196" y="1198.2964">[`requiredPos` &lt; `actualPos`]</text><line style="stroke:#181818;stroke-width:1.0;" x1="959.5122" x2="1001.5122" y1="1224.3516" y2="1224.3516"/><line style="stroke:#181818;stroke-width:1.0;" x1="1001.5122" x2="1001.5122" y1="1224.3516" y2="1237.3516"/><line style="stroke:#181818;stroke-width:1.0;" x1="960.5122" x2="1001.5122" y1="1237.3516" y2="1237.3516"/><polygon fill="#181818" points="970.5122,1233.3516,960.5122,1237.3516,970.5122,1241.3516,966.5122,1237.3516" style="stroke:#181818;stroke-width:1.0;"/><text fill="#000000" font-family="sans-serif" font-size="13" lengthAdjust="spacing" textLength="242.4551" x="966.5122" y="1219.2856">Decrement `newpos = actualPos - 1`</text><line style="stroke:#000000;stroke-width:1.0;stroke-dasharray:2.0,2.0;" x1="879.6768" x2="1231.2339" y1="1246.3516" y2="1246.3516"/><text fill="#000000" font-family="sans-serif" font-size="11" font-weight="bold" lengthAdjust="spacing" textLength="184.6099" x="884.6768" y="1256.562">[`requiredPos` &gt; `actualPos`]</text><line style="stroke:#181818;stroke-width:1.0;" x1="959.5122" x2="1001.5122" y1="1281.2891" y2="1281.2891"/><line style="stroke:#181818;stroke-width:1.0;" x1="1001.5122" x2="1001.5122" y1="1281.2891" y2="1294.2891"/><line style="stroke:#181818;stroke-width:1.0;" x1="960.5122" x2="1001.5122" y1="1294.2891" y2="1294.2891"/><polygon fill="#181818" points="970.5122,1290.2891,960.5122,1294.2891,970.5122,1298.2891,966.5122,1294.2891" style="stroke:#181818;stroke-width:1.0;"/><text fill="#000000" font-family="sans-serif" font-size="13" lengthAdjust="spacing" textLength="242.7217" x="966.5122" y="1276.2231">Increment `newpos = actualPos + 1`</text><line style="stroke:#000000;stroke-width:1.0;stroke-dasharray:2.0,2.0;" x1="869.6768" x2="1241.0347" y1="1310.2891" y2="1310.2891"/><line style="stroke:#181818;stroke-width:1.0;" x1="959.5122" x2="1001.5122" y1="1332.4219" y2="1332.4219"/><line style="stroke:#181818;stroke-width:1.0;" x1="1001.5122" x2="1001.5122" y1="1332.4219" y2="1345.4219"/><line style="stroke:#181818;stroke-width:1.0;" x1="960.5122" x2="1001.5122" y1="1345.4219" y2="1345.4219"/><polygon fill="#181818" points="970.5122,1341.4219,960.5122,1345.4219,970.5122,1349.4219,966.5122,1345.4219" style="stroke:#181818;stroke-width:1.0;"/><text fill="#000000" font-family="sans-serif" font-size="13" lengthAdjust="spacing" textLength="252.5225" x="966.5122" y="1327.356">Set `newpos = actualPos` (no change)</text><polygon fill="#181818" points="355.5933,1377.5547,345.5933,1381.5547,355.5933,1385.5547,351.5933,1381.5547" style="stroke:#181818;stroke-width:1.0;"/><line style="stroke:#181818;stroke-width:1.0;stroke-dasharray:2.0,2.0;" x1="349.5933" x2="948.5122" y1="1381.5547" y2="1381.5547"/><text fill="#000000" font-family="sans-serif" font-size="13" lengthAdjust="spacing" textLength="110.9316" x="361.5933" y="1376.4888">Return `newpos`</text><polygon fill="#181818" points="937.5122,1406.6875,947.5122,1410.6875,937.5122,1414.6875,941.5122,1410.6875" style="stroke:#181818;stroke-width:1.0;"/><line style="stroke:#181818;stroke-width:1.0;" x1="344.5933" x2="943.5122" y1="1410.6875" y2="1410.6875"/><text fill="#000000" font-family="sans-serif" font-size="13" lengthAdjust="spacing" textLength="225.5005" x="351.5933" y="1405.6216">Update `actualPos` with `newpos`</text><polygon fill="#181818" points="355.5933,1442.8203,345.5933,1446.8203,355.5933,1450.8203,351.5933,1446.8203" style="stroke:#181818;stroke-width:1.0;"/><line style="stroke:#181818;stroke-width:1.0;" x1="349.5933" x2="948.5122" y1="1446.8203" y2="1446.8203"/><text fill="#000000" font-family="sans-serif" font-size="13" lengthAdjust="spacing" textLength="321.1216" x="361.5933" y="1441.7544">Reached `bottomPos`, now returning to `topPos`</text><polygon fill="#181818" points="937.5122,1471.9531,947.5122,1475.9531,937.5122,1479.9531,941.5122,1475.9531" style="stroke:#181818;stroke-width:1.0;"/><line style="stroke:#181818;stroke-width:1.0;" x1="344.5933" x2="943.5122" y1="1475.9531" y2="1475.9531"/><text fill="#000000" font-family="sans-serif" font-size="13" lengthAdjust="spacing" textLength="541.3218" x="351.5933" y="1470.8872">Set `requiredPos = topPos`, `actualPos = bottomPos`, `speed = gvl.sawingSpeed`</text><path d="M317.1353,1490.9531 L393.7593,1490.9531 L393.7593,1498.0859 L383.7593,1508.0859 L317.1353,1508.0859 L317.1353,1490.9531 " fill="#EEEEEE" style="stroke:#000000;stroke-width:1.5;"/><rect fill="none" height="365.1328" style="stroke:#000000;stroke-width:1.5;" width="933.8994" x="317.1353" y="1490.9531"/><text fill="#000000" font-family="sans-serif" font-size="13" font-weight="bold" lengthAdjust="spacing" textLength="31.624" x="332.1353" y="1504.02">loop</text><text fill="#000000" font-family="sans-serif" font-size="11" font-weight="bold" lengthAdjust="spacing" textLength="177.7617" x="408.7593" y="1503.1636">[Until saw reaches `topPos`]</text><line style="stroke:#181818;stroke-width:1.0;" x1="959.5122" x2="1001.5122" y1="1529.2188" y2="1529.2188"/><line style="stroke:#181818;stroke-width:1.0;" x1="1001.5122" x2="1001.5122" y1="1529.2188" y2="1542.2188"/><line style="stroke:#181818;stroke-width:1.0;" x1="960.5122" x2="1001.5122" y1="1542.2188" y2="1542.2188"/><polygon fill="#181818" points="970.5122,1538.2188,960.5122,1542.2188,970.5122,1546.2188,966.5122,1542.2188" style="stroke:#181818;stroke-width:1.0;"/><text fill="#000000" font-family="sans-serif" font-size="13" lengthAdjust="spacing" textLength="225.0308" x="966.5122" y="1524.1528">`timer1` regulates update interval</text><path d="M869.6768,1557.2188 L934.1196,1557.2188 L934.1196,1564.3516 L924.1196,1574.3516 L869.6768,1574.3516 L869.6768,1557.2188 " fill="#EEEEEE" style="stroke:#000000;stroke-width:1.5;"/><rect fill="none" height="233.6016" style="stroke:#000000;stroke-width:1.5;" width="371.3579" x="869.6768" y="1557.2188"/><text fill="#000000" font-family="sans-serif" font-size="13" font-weight="bold" lengthAdjust="spacing" textLength="19.4429" x="884.6768" y="1570.2856">alt</text><text fill="#000000" font-family="sans-serif" font-size="11" font-weight="bold" lengthAdjust="spacing" textLength="99.4995" x="949.1196" y="1569.4292">[Timer reached]</text><line style="stroke:#181818;stroke-width:1.0;" x1="959.5122" x2="1001.5122" y1="1595.4844" y2="1595.4844"/><line style="stroke:#181818;stroke-width:1.0;" x1="1001.5122" x2="1001.5122" y1="1595.4844" y2="1608.4844"/><line style="stroke:#181818;stroke-width:1.0;" x1="960.5122" x2="1001.5122" y1="1608.4844" y2="1608.4844"/><polygon fill="#181818" points="970.5122,1604.4844,960.5122,1608.4844,970.5122,1612.4844,966.5122,1608.4844" style="stroke:#181818;stroke-width:1.0;"/><text fill="#000000" font-family="sans-serif" font-size="13" lengthAdjust="spacing" textLength="170.9805" x="966.5122" y="1590.4185">Set `timer1start = FALSE`</text><path d="M879.6768,1623.4844 L944.1196,1623.4844 L944.1196,1630.6172 L934.1196,1640.6172 L879.6768,1640.6172 L879.6768,1623.4844 " fill="#EEEEEE" style="stroke:#000000;stroke-width:1.5;"/><rect fill="none" height="116.2031" style="stroke:#000000;stroke-width:1.5;" width="351.5571" x="879.6768" y="1623.4844"/><text fill="#000000" font-family="sans-serif" font-size="13" font-weight="bold" lengthAdjust="spacing" textLength="19.4429" x="894.6768" y="1636.5513">alt</text><text fill="#000000" font-family="sans-serif" font-size="11" font-weight="bold" lengthAdjust="spacing" textLength="184.6099" x="959.1196" y="1635.6948">[`requiredPos` &lt; `actualPos`]</text><line style="stroke:#181818;stroke-width:1.0;" x1="959.5122" x2="1001.5122" y1="1661.75" y2="1661.75"/><line style="stroke:#181818;stroke-width:1.0;" x1="1001.5122" x2="1001.5122" y1="1661.75" y2="1674.75"/><line style="stroke:#181818;stroke-width:1.0;" x1="960.5122" x2="1001.5122" y1="1674.75" y2="1674.75"/><polygon fill="#181818" points="970.5122,1670.75,960.5122,1674.75,970.5122,1678.75,966.5122,1674.75" style="stroke:#181818;stroke-width:1.0;"/><text fill="#000000" font-family="sans-serif" font-size="13" lengthAdjust="spacing" textLength="242.4551" x="966.5122" y="1656.6841">Decrement `newpos = actualPos - 1`</text><line style="stroke:#000000;stroke-width:1.0;stroke-dasharray:2.0,2.0;" x1="879.6768" x2="1231.2339" y1="1683.75" y2="1683.75"/><text fill="#000000" font-family="sans-serif" font-size="11" font-weight="bold" lengthAdjust="spacing" textLength="184.6099" x="884.6768" y="1693.9604">[`requiredPos` &gt; `actualPos`]</text><line style="stroke:#181818;stroke-width:1.0;" x1="959.5122" x2="1001.5122" y1="1718.6875" y2="1718.6875"/><line style="stroke:#181818;stroke-width:1.0;" x1="1001.5122" x2="1001.5122" y1="1718.6875" y2="1731.6875"/><line style="stroke:#181818;stroke-width:1.0;" x1="960.5122" x2="1001.5122" y1="1731.6875" y2="1731.6875"/><polygon fill="#181818" points="970.5122,1727.6875,960.5122,1731.6875,970.5122,1735.6875,966.5122,1731.6875" style="stroke:#181818;stroke-width:1.0;"/><text fill="#000000" font-family="sans-serif" font-size="13" lengthAdjust="spacing" textLength="242.7217" x="966.5122" y="1713.6216">Increment `newpos = actualPos + 1`</text><line style="stroke:#000000;stroke-width:1.0;stroke-dasharray:2.0,2.0;" x1="869.6768" x2="1241.0347" y1="1747.6875" y2="1747.6875"/><line style="stroke:#181818;stroke-width:1.0;" x1="959.5122" x2="1001.5122" y1="1769.8203" y2="1769.8203"/><line style="stroke:#181818;stroke-width:1.0;" x1="1001.5122" x2="1001.5122" y1="1769.8203" y2="1782.8203"/><line style="stroke:#181818;stroke-width:1.0;" x1="960.5122" x2="1001.5122" y1="1782.8203" y2="1782.8203"/><polygon fill="#181818" points="970.5122,1778.8203,960.5122,1782.8203,970.5122,1786.8203,966.5122,1782.8203" style="stroke:#181818;stroke-width:1.0;"/><text fill="#000000" font-family="sans-serif" font-size="13" lengthAdjust="spacing" textLength="252.5225" x="966.5122" y="1764.7544">Set `newpos = actualPos` (no change)</text><polygon fill="#181818" points="355.5933,1814.9531,345.5933,1818.9531,355.5933,1822.9531,351.5933,1818.9531" style="stroke:#181818;stroke-width:1.0;"/><line style="stroke:#181818;stroke-width:1.0;stroke-dasharray:2.0,2.0;" x1="349.5933" x2="948.5122" y1="1818.9531" y2="1818.9531"/><text fill="#000000" font-family="sans-serif" font-size="13" lengthAdjust="spacing" textLength="110.9316" x="361.5933" y="1813.8872">Return `newpos`</text><polygon fill="#181818" points="937.5122,1844.0859,947.5122,1848.0859,937.5122,1852.0859,941.5122,1848.0859" style="stroke:#181818;stroke-width:1.0;"/><line style="stroke:#181818;stroke-width:1.0;" x1="344.5933" x2="943.5122" y1="1848.0859" y2="1848.0859"/><text fill="#000000" font-family="sans-serif" font-size="13" lengthAdjust="spacing" textLength="225.5005" x="351.5933" y="1843.02">Update `actualPos` with `newpos`</text><polygon fill="#181818" points="355.5933,1880.2188,345.5933,1884.2188,355.5933,1888.2188,351.5933,1884.2188" style="stroke:#181818;stroke-width:1.0;"/><line style="stroke:#181818;stroke-width:1.0;" x1="349.5933" x2="953.5122" y1="1884.2188" y2="1884.2188"/><text fill="#000000" font-family="sans-serif" font-size="13" lengthAdjust="spacing" textLength="330.2432" x="361.5933" y="1879.1528">Final position reached (`actualPos = requiredPos`)</text><polygon fill="#181818" points="68.5195,1909.3516,58.5195,1913.3516,68.5195,1917.3516,64.5195,1913.3516" style="stroke:#181818;stroke-width:1.0;"/><line style="stroke:#181818;stroke-width:1.0;" x1="62.5195" x2="343.5933" y1="1913.3516" y2="1913.3516"/><text fill="#000000" font-family="sans-serif" font-size="13" lengthAdjust="spacing" textLength="153.1182" x="74.5195" y="1908.2856">Notify sawing complete</text><!--SRC=[xLLBRnen4BxxLumuWTfKoZKgaPgqaP186mNsN3lU0ImMUxlsWlhlwx7toQj9bLlXn7h6yyth-ooaCmKC4ei5JBJ3OY4a3a1OI2PCHEDCx62AUkbMC7Cc3zRPTDOnnoEnOxaed98g5zh1uEb7ylFHR75kdemDBiqNO-CnxCM5kR1h68zPCe6hMqA06s_m4S6IEJTMEMMqqaj6Hk_Jn2DFTC0B_5Mg0bCw6iDoctsgJpoOlnZX-4VWFlbIPD7F1XlbuB_9Q7F4r1isPai6-k9KhjeAXvqgMlozPEvNADUW5XqS3fzx-N76HEQg0kTgumVW_RLnK9Gw50d-Tn8XbEleshKD8SOmVqw-yVEtxaKcouoAuBB-cn8uXnTXVSr6LzLpXZfbB3E-yubsAej3A5385Lge2-cFvZnubIxtbvS1sKAPfvICeitRYYpSfwx4VaImD9o-jHaFNwQpgXjrq5xtQHhjR1g_ip1VKHQuGR_RNECk3xlJxj4LNBTnCBEu1tZxTi29FWVueGUeOvy8-9KDEmp9OQWDo9NGInonRjXEf8QRp-ZAGjTnOYf7Y9d46NUPi5EUyyszi6YzL6Fy1wL5rknMlGqmx76ts-8HI_48IwkSlApSX5F82vEMqe5O2gLjb9T6aO8A3Hy3yyE1Ct1dd3CR43g5Eo7NeuvAUGUQaq-HGAEI4814wv6zzUyozHAYLzBJhUrGa4ZHAhMwY58G9T_XMfDusyYB4FqdGXJeTrI83gdtBq9KnO_AmxjCrOOsZu29yLuaU4NNLxA-9NUNyZqjECdwamoeKxYi_sNztstzt-qTZZc5T_YxSMhnktulfTda6Jhy0m00]--></g></svg>