<svg xmlns="http://www.w3.org/2000/svg" xmlns:xlink="http://www.w3.org/1999/xlink" contentStyleType="text/css" height="650px" preserveAspectRatio="none" style="width:904px;height:650px;background:#FFFFFF;" version="1.1" viewBox="0 0 904 650" width="904px" zoomAndPan="magnify"><defs/><g><ellipse cx="562.74" cy="16" fill="#222222" rx="10" ry="10" style="stroke:#222222;stroke-width:1.0;"/><g id="Idle"><rect fill="#F1F1F1" height="50.2656" rx="12.5" ry="12.5" style="stroke:#181818;stroke-width:0.5;" width="266.2813" x="429.6" y="87"/><line style="stroke:#181818;stroke-width:0.5;" x1="429.6" x2="695.8812" y1="113.2969" y2="113.2969"/><text fill="#000000" font-family="sans-serif" font-size="14" lengthAdjust="spacing" textLength="25.5186" x="549.9813" y="104.9951">Idle</text><text fill="#000000" font-family="sans-serif" font-size="12" lengthAdjust="spacing" textLength="246.2813" x="434.6" y="129.4355">Waiting for startButtonLengthStop signal</text></g><g id="Check_Position"><rect fill="#F1F1F1" height="50.2656" rx="12.5" ry="12.5" style="stroke:#181818;stroke-width:0.5;" width="345.7285" x="239.87" y="214.27"/><line style="stroke:#181818;stroke-width:0.5;" x1="239.87" x2="585.5985" y1="240.5669" y2="240.5669"/><text fill="#000000" font-family="sans-serif" font-size="14" lengthAdjust="spacing" textLength="105.0752" x="360.1967" y="232.2651">Check_Position</text><text fill="#000000" font-family="sans-serif" font-size="12" lengthAdjust="spacing" textLength="325.7285" x="244.87" y="256.7055">Comparing requiredSawingLength and sawingStopPos</text></g><g id="Position_Reached"><rect fill="#F1F1F1" height="50.2656" rx="12.5" ry="12.5" style="stroke:#181818;stroke-width:0.5;" width="143.2051" x="352.14" y="468.8"/><line style="stroke:#181818;stroke-width:0.5;" x1="352.14" x2="495.3451" y1="495.0969" y2="495.0969"/><text fill="#000000" font-family="sans-serif" font-size="14" lengthAdjust="spacing" textLength="122.999" x="362.243" y="486.7951">Position_Reached</text><text fill="#000000" font-family="sans-serif" font-size="12" lengthAdjust="spacing" textLength="123.2051" x="357.14" y="511.2355">posReached = TRUE</text></g><g id="Move_Stop"><rect fill="#F1F1F1" height="50.2656" rx="12.5" ry="12.5" style="stroke:#181818;stroke-width:0.5;" width="248.5098" x="346.48" y="341.53"/><line style="stroke:#181818;stroke-width:0.5;" x1="346.48" x2="594.9898" y1="367.8269" y2="367.8269"/><text fill="#000000" font-family="sans-serif" font-size="14" lengthAdjust="spacing" textLength="76.3711" x="432.5493" y="359.5251">Move_Stop</text><text fill="#000000" font-family="sans-serif" font-size="12" lengthAdjust="spacing" textLength="228.5098" x="351.48" y="383.9655">Moving stop to requiredSawingLength</text></g><g id="Metal_Against_Stop"><rect fill="#F1F1F1" height="64.2344" rx="12.5" ry="12.5" style="stroke:#181818;stroke-width:0.5;" width="252.582" x="441.45" y="580.07"/><line style="stroke:#181818;stroke-width:0.5;" x1="441.45" x2="694.032" y1="606.3669" y2="606.3669"/><text fill="#000000" font-family="sans-serif" font-size="14" lengthAdjust="spacing" textLength="137.0674" x="499.2073" y="598.0651">Metal_Against_Stop</text><text fill="#000000" font-family="sans-serif" font-size="12" lengthAdjust="spacing" textLength="166.1074" x="446.45" y="622.5055">Checking metalAgainstStop</text><text fill="#000000" font-family="sans-serif" font-size="12" lengthAdjust="spacing" textLength="232.582" x="446.45" y="636.4743">gvl.metalIsToStop = metalAgainstStop</text></g><!--link *start* to Idle--><g id="link_*start*_Idle"><path d="M562.74,26.37 C562.74,40.32 562.74,61.03 562.74,80.75 " fill="none" id="*start*-to-Idle" style="stroke:#181818;stroke-width:1.0;"/><polygon fill="#181818" points="562.74,86.75,566.74,77.75,562.74,81.75,558.74,77.75,562.74,86.75" style="stroke:#181818;stroke-width:1.0;"/></g><!--link Idle to Check_Position--><g id="link_Idle_Check_Position"><path d="M502.65,137.74 C487.3,145.74 471.53,155.62 458.74,167.27 C444.27,180.43 435.269,193.8396 427.219,208.7596 " fill="none" id="Idle-to-Check_Position" style="stroke:#181818;stroke-width:1.0;"/><polygon fill="#181818" points="424.37,214.04,432.1638,208.0187,426.7442,209.6396,425.1233,204.22,424.37,214.04" style="stroke:#181818;stroke-width:1.0;"/><text fill="#000000" font-family="sans-serif" font-size="13" lengthAdjust="spacing" textLength="225.9956" x="459.74" y="180.3369">gvl.startButtonLengthStop = TRUE</text></g><!--link Check_Position to Position_Reached--><g id="link_Check_Position_Position_Reached"><path d="M239.58,258.16 C125.13,277.17 6,315.6 63.74,391.8 C98.44,437.59 251.3206,467.4922 346.0306,482.1522 " fill="none" id="Check_Position-to-Position_Reached" style="stroke:#181818;stroke-width:1.0;"/><polygon fill="#181818" points="351.96,483.07,343.6778,477.7404,347.0188,482.3052,342.4541,485.6462,351.96,483.07" style="stroke:#181818;stroke-width:1.0;"/><text fill="#000000" font-family="sans-serif" font-size="13" lengthAdjust="spacing" textLength="263.8149" x="64.74" y="371.2369">sawingStopPos = requiredSawingLength</text></g><!--link Check_Position to Move_Stop--><g id="link_Check_Position_Move_Stop"><path d="M406.43,264.81 C404.01,279.04 403.2,296.99 409.74,311.53 C414.91,323.03 419.3168,329.1393 428.7968,337.3593 " fill="none" id="Check_Position-to-Move_Stop" style="stroke:#181818;stroke-width:1.0;"/><polygon fill="#181818" points="433.33,341.29,429.1507,332.3719,429.5523,338.0144,423.9098,338.4161,433.33,341.29" style="stroke:#181818;stroke-width:1.0;"/><text fill="#000000" font-family="sans-serif" font-size="13" lengthAdjust="spacing" textLength="274.7075" x="410.74" y="307.5969">sawingStopPos &lt;&gt; requiredSawingLength</text></g><!--link Move_Stop to Position_Reached--><g id="link_Move_Stop_Position_Reached"><path d="M441.01,392.08 C432.86,400.55 425.07,410.72 420.74,421.8 C414.98,436.53 414.8091,448.3911 416.9991,462.4911 " fill="none" id="Move_Stop-to-Position_Reached" style="stroke:#181818;stroke-width:1.0;"/><polygon fill="#181818" points="417.92,468.42,420.4913,458.9127,417.1526,463.4792,412.5861,460.1405,417.92,468.42" style="stroke:#181818;stroke-width:1.0;"/><text fill="#000000" font-family="sans-serif" font-size="13" lengthAdjust="spacing" textLength="263.8149" x="421.74" y="434.8669">sawingStopPos = requiredSawingLength</text></g><!--link Position_Reached to Metal_Against_Stop--><g id="link_Position_Reached_Metal_Against_Stop"><path d="M453.93,519.3 C475.7,536.88 500.6121,556.9903 524.1521,576.0003 " fill="none" id="Position_Reached-to-Metal_Against_Stop" style="stroke:#181818;stroke-width:1.0;"/><polygon fill="#181818" points="528.82,579.77,524.3312,571.0036,524.93,576.6286,519.305,577.2275,528.82,579.77" style="stroke:#181818;stroke-width:1.0;"/></g><!--link Metal_Against_Stop to Idle--><g id="link_Metal_Against_Stop_Idle"><path d="M647.32,579.79 C680.62,560.97 711.74,533.17 711.74,494.93 C711.74,238.4 711.74,238.4 711.74,238.4 C711.74,205.31 711.9,191.84 689.74,167.27 C678.5,154.81 669.2934,147.7694 654.0334,140.2594 " fill="none" id="Metal_Against_Stop-to-Idle" style="stroke:#181818;stroke-width:1.0;"/><polygon fill="#181818" points="648.65,137.61,654.9588,145.173,653.1362,139.8178,658.4913,137.9951,648.65,137.61" style="stroke:#181818;stroke-width:1.0;"/><text fill="#000000" font-family="sans-serif" font-size="13" lengthAdjust="spacing" textLength="183.8154" x="712.74" y="371.2369">Resetting for next operation</text></g><!--SRC=[fPBFJiCm3CRlUGgVaSO389W44uT9J4BT40U4AcirQKGNbyGRF3vnrl9dpG69IrKdt- -BlpXFPyymcyrXsNHaZ7xX0XxHYVCMNZX050noinTXVqVUIhiMxY4wwx4xwXLVjBHzhUyv9f1zih27xhoCNi6cUhWrPe8iUDTZq7C3lUrTe6QDxwayie2-WPWNr2PnfmxQnrZK5U6sfIRP_cBIwINpajMA3rJdZayzBkTb4_CJIVyQ9MebN0Q-zV_ftHJ0dkDO3FSz4UMC9DZLrnQTZv8xII4cQpeRlH_DizFTOJFhYtATVbOkuuQ7gV-575zYigWeadozGayV0jnJGCtm2G00]--></g></svg>