<svg xmlns="http://www.w3.org/2000/svg" xmlns:xlink="http://www.w3.org/1999/xlink" contentStyleType="text/css" height="987px" preserveAspectRatio="none" style="width:1436px;height:987px;background:#FFFFFF;" version="1.1" viewBox="0 0 1436 987" width="1436px" zoomAndPan="magnify"><defs/><g><rect fill="#FFFFFF" height="769.0547" style="stroke:#181818;stroke-width:1.0;" width="10" x="401.0776" y="112.4297"/><rect fill="#FFFFFF" height="29.1328" style="stroke:#181818;stroke-width:1.0;" width="10" x="1117.6763" y="516.0234"/><rect fill="#FFFFFF" height="29.1328" style="stroke:#181818;stroke-width:1.0;" width="10" x="1117.6763" y="745.9531"/><rect fill="#FFFFFF" height="142.5313" style="stroke:#181818;stroke-width:1.0;" width="10" x="1178.5186" y="574.2891"/><rect fill="none" height="104.5313" style="stroke:#000000;stroke-width:1.5;" width="874.7627" x="10" y="383.3594"/><line style="stroke:#181818;stroke-width:0.5;stroke-dasharray:5.0,5.0;" x1="38" x2="38" y1="81.2969" y2="906.4844"/><line style="stroke:#181818;stroke-width:0.5;stroke-dasharray:5.0,5.0;" x1="405.7832" x2="405.7832" y1="81.2969" y2="906.4844"/><line style="stroke:#181818;stroke-width:0.5;stroke-dasharray:5.0,5.0;" x1="812.4834" x2="812.4834" y1="81.2969" y2="906.4844"/><line style="stroke:#181818;stroke-width:0.5;stroke-dasharray:5.0,5.0;" x1="1122.292" x2="1122.292" y1="81.2969" y2="906.4844"/><line style="stroke:#181818;stroke-width:0.5;stroke-dasharray:5.0,5.0;" x1="1183.0605" x2="1183.0605" y1="81.2969" y2="906.4844"/><text fill="#000000" font-family="sans-serif" font-size="14" lengthAdjust="spacing" textLength="31.9102" x="20" y="77.9951">User</text><ellipse cx="38.9551" cy="13.5" fill="#E2E2F0" rx="8" ry="8" style="stroke:#181818;stroke-width:0.5;"/><path d="M38.9551,21.5 L38.9551,48.5 M25.9551,29.5 L51.9551,29.5 M38.9551,48.5 L25.9551,63.5 M38.9551,48.5 L51.9551,63.5 " fill="none" style="stroke:#181818;stroke-width:0.5;"/><text fill="#000000" font-family="sans-serif" font-size="14" lengthAdjust="spacing" textLength="31.9102" x="20" y="918.4795">User</text><ellipse cx="38.9551" cy="930.2813" fill="#E2E2F0" rx="8" ry="8" style="stroke:#181818;stroke-width:0.5;"/><path d="M38.9551,938.2813 L38.9551,965.2813 M25.9551,946.2813 L51.9551,946.2813 M38.9551,965.2813 L25.9551,980.2813 M38.9551,965.2813 L51.9551,980.2813 " fill="none" style="stroke:#181818;stroke-width:0.5;"/><rect fill="#E2E2F0" height="30.2969" rx="2.5" ry="2.5" style="stroke:#181818;stroke-width:0.5;" width="108.5889" x="351.7832" y="50"/><text fill="#000000" font-family="sans-serif" font-size="14" lengthAdjust="spacing" textLength="94.5889" x="358.7832" y="69.9951">UserInterface</text><rect fill="#E2E2F0" height="30.2969" rx="2.5" ry="2.5" style="stroke:#181818;stroke-width:0.5;" width="108.5889" x="351.7832" y="905.4844"/><text fill="#000000" font-family="sans-serif" font-size="14" lengthAdjust="spacing" textLength="94.5889" x="358.7832" y="925.4795">UserInterface</text><rect fill="#E2E2F0" height="30.2969" rx="2.5" ry="2.5" style="stroke:#181818;stroke-width:0.5;" width="123.2793" x="751.4834" y="50"/><text fill="#000000" font-family="sans-serif" font-size="14" lengthAdjust="spacing" textLength="109.2793" x="758.4834" y="69.9951">SawLengthStop</text><rect fill="#E2E2F0" height="30.2969" rx="2.5" ry="2.5" style="stroke:#181818;stroke-width:0.5;" width="123.2793" x="751.4834" y="905.4844"/><text fill="#000000" font-family="sans-serif" font-size="14" lengthAdjust="spacing" textLength="109.2793" x="758.4834" y="925.4795">SawLengthStop</text><rect fill="#E2E2F0" height="30.2969" rx="2.5" ry="2.5" style="stroke:#181818;stroke-width:0.5;" width="58.7686" x="1093.292" y="50"/><text fill="#000000" font-family="sans-serif" font-size="14" lengthAdjust="spacing" textLength="44.7686" x="1100.292" y="69.9951">Clamp</text><rect fill="#E2E2F0" height="30.2969" rx="2.5" ry="2.5" style="stroke:#181818;stroke-width:0.5;" width="58.7686" x="1093.292" y="905.4844"/><text fill="#000000" font-family="sans-serif" font-size="14" lengthAdjust="spacing" textLength="44.7686" x="1100.292" y="925.4795">Clamp</text><rect fill="#E2E2F0" height="30.2969" rx="2.5" ry="2.5" style="stroke:#181818;stroke-width:0.5;" width="42.916" x="1162.0605" y="50"/><text fill="#000000" font-family="sans-serif" font-size="14" lengthAdjust="spacing" textLength="28.916" x="1169.0605" y="69.9951">Saw</text><rect fill="#E2E2F0" height="30.2969" rx="2.5" ry="2.5" style="stroke:#181818;stroke-width:0.5;" width="42.916" x="1162.0605" y="905.4844"/><text fill="#000000" font-family="sans-serif" font-size="14" lengthAdjust="spacing" textLength="28.916" x="1169.0605" y="925.4795">Saw</text><rect fill="#FFFFFF" height="769.0547" style="stroke:#181818;stroke-width:1.0;" width="10" x="401.0776" y="112.4297"/><rect fill="#FFFFFF" height="29.1328" style="stroke:#181818;stroke-width:1.0;" width="10" x="1117.6763" y="516.0234"/><rect fill="#FFFFFF" height="29.1328" style="stroke:#181818;stroke-width:1.0;" width="10" x="1117.6763" y="745.9531"/><rect fill="#FFFFFF" height="142.5313" style="stroke:#181818;stroke-width:1.0;" width="10" x="1178.5186" y="574.2891"/><polygon fill="#181818" points="389.0776,108.4297,399.0776,112.4297,389.0776,116.4297,393.0776,112.4297" style="stroke:#181818;stroke-width:1.0;"/><line style="stroke:#181818;stroke-width:1.0;" x1="38.9551" x2="395.0776" y1="112.4297" y2="112.4297"/><text fill="#000000" font-family="sans-serif" font-size="13" lengthAdjust="spacing" textLength="343.1226" x="45.9551" y="107.3638">Input `inputSawingLength` and `inputSawingSpeed`</text><line style="stroke:#181818;stroke-width:1.0;" x1="411.0776" x2="453.0776" y1="141.5625" y2="141.5625"/><line style="stroke:#181818;stroke-width:1.0;" x1="453.0776" x2="453.0776" y1="141.5625" y2="154.5625"/><line style="stroke:#181818;stroke-width:1.0;" x1="412.0776" x2="453.0776" y1="154.5625" y2="154.5625"/><polygon fill="#181818" points="422.0776,150.5625,412.0776,154.5625,422.0776,158.5625,418.0776,154.5625" style="stroke:#181818;stroke-width:1.0;"/><text fill="#000000" font-family="sans-serif" font-size="13" lengthAdjust="spacing" textLength="353.8501" x="418.0776" y="136.4966">Set `gvl.requiredSawingLength = inputSawingLength`</text><line style="stroke:#181818;stroke-width:1.0;" x1="411.0776" x2="453.0776" y1="183.6953" y2="183.6953"/><line style="stroke:#181818;stroke-width:1.0;" x1="453.0776" x2="453.0776" y1="183.6953" y2="196.6953"/><line style="stroke:#181818;stroke-width:1.0;" x1="412.0776" x2="453.0776" y1="196.6953" y2="196.6953"/><polygon fill="#181818" points="422.0776,192.6953,412.0776,196.6953,422.0776,200.6953,418.0776,196.6953" style="stroke:#181818;stroke-width:1.0;"/><text fill="#000000" font-family="sans-serif" font-size="13" lengthAdjust="spacing" textLength="288.6978" x="418.0776" y="178.6294">Set `gvl.sawingSpeed = inputSawingSpeed`</text><polygon fill="#181818" points="389.0776,221.8281,399.0776,225.8281,389.0776,229.8281,393.0776,225.8281" style="stroke:#181818;stroke-width:1.0;"/><line style="stroke:#181818;stroke-width:1.0;" x1="38.9551" x2="395.0776" y1="225.8281" y2="225.8281"/><text fill="#000000" font-family="sans-serif" font-size="13" lengthAdjust="spacing" textLength="200.3066" x="45.9551" y="220.7622">Press `startButtonLengthStop`</text><polygon fill="#181818" points="801.123,250.9609,811.123,254.9609,801.123,258.9609,805.123,254.9609" style="stroke:#181818;stroke-width:1.0;"/><line style="stroke:#181818;stroke-width:1.0;" x1="411.0776" x2="807.123" y1="254.9609" y2="254.9609"/><text fill="#000000" font-family="sans-serif" font-size="13" lengthAdjust="spacing" textLength="264.4751" x="418.0776" y="249.895">Set `gvl.startButtonLengthStop = TRUE`</text><line style="stroke:#181818;stroke-width:1.0;" x1="813.123" x2="855.123" y1="284.0938" y2="284.0938"/><line style="stroke:#181818;stroke-width:1.0;" x1="855.123" x2="855.123" y1="284.0938" y2="297.0938"/><line style="stroke:#181818;stroke-width:1.0;" x1="814.123" x2="855.123" y1="297.0938" y2="297.0938"/><polygon fill="#181818" points="824.123,293.0938,814.123,297.0938,824.123,301.0938,820.123,297.0938" style="stroke:#181818;stroke-width:1.0;"/><text fill="#000000" font-family="sans-serif" font-size="13" lengthAdjust="spacing" textLength="295.5532" x="820.123" y="279.0278">Move to position `gvl.requiredSawingLength`</text><polygon fill="#181818" points="422.0776,322.2266,412.0776,326.2266,422.0776,330.2266,418.0776,326.2266" style="stroke:#181818;stroke-width:1.0;"/><line style="stroke:#181818;stroke-width:1.0;stroke-dasharray:2.0,2.0;" x1="416.0776" x2="812.123" y1="326.2266" y2="326.2266"/><text fill="#000000" font-family="sans-serif" font-size="13" lengthAdjust="spacing" textLength="223.3042" x="428.0776" y="321.1606">Set `gvl.stopPosReached = TRUE`</text><line style="stroke:#181818;stroke-width:1.0;" x1="411.0776" x2="453.0776" y1="355.3594" y2="355.3594"/><line style="stroke:#181818;stroke-width:1.0;" x1="453.0776" x2="453.0776" y1="355.3594" y2="368.3594"/><line style="stroke:#181818;stroke-width:1.0;" x1="412.0776" x2="453.0776" y1="368.3594" y2="368.3594"/><polygon fill="#181818" points="422.0776,364.3594,412.0776,368.3594,422.0776,372.3594,418.0776,368.3594" style="stroke:#181818;stroke-width:1.0;"/><text fill="#000000" font-family="sans-serif" font-size="13" lengthAdjust="spacing" textLength="174.2051" x="418.0776" y="350.2935">Check `gvl.metalIsToStop`</text><path d="M10,383.3594 L74.4429,383.3594 L74.4429,390.4922 L64.4429,400.4922 L10,400.4922 L10,383.3594 " fill="#EEEEEE" style="stroke:#000000;stroke-width:1.5;"/><rect fill="none" height="104.5313" style="stroke:#000000;stroke-width:1.5;" width="874.7627" x="10" y="383.3594"/><text fill="#000000" font-family="sans-serif" font-size="13" font-weight="bold" lengthAdjust="spacing" textLength="19.4429" x="25" y="396.4263">alt</text><text fill="#000000" font-family="sans-serif" font-size="11" font-weight="bold" lengthAdjust="spacing" textLength="116.9663" x="89.4429" y="395.5698">[Metal not at stop]</text><polygon fill="#181818" points="49.9551,417.625,39.9551,421.625,49.9551,425.625,45.9551,421.625" style="stroke:#181818;stroke-width:1.0;"/><line style="stroke:#181818;stroke-width:1.0;" x1="43.9551" x2="400.0776" y1="421.625" y2="421.625"/><text fill="#000000" font-family="sans-serif" font-size="13" lengthAdjust="spacing" textLength="252.2876" x="55.9551" y="416.5591">Display message "Move metal to stop"</text><polygon fill="#181818" points="389.0776,446.7578,399.0776,450.7578,389.0776,454.7578,393.0776,450.7578" style="stroke:#181818;stroke-width:1.0;"/><line style="stroke:#181818;stroke-width:1.0;" x1="38.9551" x2="395.0776" y1="450.7578" y2="450.7578"/><text fill="#000000" font-family="sans-serif" font-size="13" lengthAdjust="spacing" textLength="142.3398" x="45.9551" y="445.6919">Confirm metal at stop</text><polygon fill="#181818" points="422.0776,475.8906,412.0776,479.8906,422.0776,483.8906,418.0776,479.8906" style="stroke:#181818;stroke-width:1.0;"/><line style="stroke:#181818;stroke-width:1.0;" x1="416.0776" x2="812.123" y1="479.8906" y2="479.8906"/><text fill="#000000" font-family="sans-serif" font-size="13" lengthAdjust="spacing" textLength="209.4219" x="428.0776" y="474.8247">Set `gvl.metalIsToStop = TRUE`</text><polygon fill="#181818" points="1105.6763,512.0234,1115.6763,516.0234,1105.6763,520.0234,1109.6763,516.0234" style="stroke:#181818;stroke-width:1.0;"/><line style="stroke:#181818;stroke-width:1.0;" x1="411.0776" x2="1111.6763" y1="516.0234" y2="516.0234"/><text fill="#000000" font-family="sans-serif" font-size="13" lengthAdjust="spacing" textLength="187.8779" x="418.0776" y="510.9575">Set `gvl.startClamp = TRUE`</text><polygon fill="#181818" points="422.0776,541.1563,412.0776,545.1563,422.0776,549.1563,418.0776,545.1563" style="stroke:#181818;stroke-width:1.0;"/><line style="stroke:#181818;stroke-width:1.0;" x1="416.0776" x2="1121.6763" y1="545.1563" y2="545.1563"/><text fill="#000000" font-family="sans-serif" font-size="13" lengthAdjust="spacing" textLength="171.9199" x="428.0776" y="540.0903">Set `gvl.clamped = TRUE`</text><polygon fill="#181818" points="1166.5186,570.2891,1176.5186,574.2891,1166.5186,578.2891,1170.5186,574.2891" style="stroke:#181818;stroke-width:1.0;"/><line style="stroke:#181818;stroke-width:1.0;" x1="411.0776" x2="1172.5186" y1="574.2891" y2="574.2891"/><text fill="#000000" font-family="sans-serif" font-size="13" lengthAdjust="spacing" textLength="240.1255" x="418.0776" y="569.2231">Start sawing with `gvl.sawingSpeed`</text><line style="stroke:#181818;stroke-width:1.0;" x1="1188.5186" x2="1230.5186" y1="603.4219" y2="603.4219"/><line style="stroke:#181818;stroke-width:1.0;" x1="1230.5186" x2="1230.5186" y1="603.4219" y2="616.4219"/><line style="stroke:#181818;stroke-width:1.0;" x1="1189.5186" x2="1230.5186" y1="616.4219" y2="616.4219"/><polygon fill="#181818" points="1199.5186,612.4219,1189.5186,616.4219,1199.5186,620.4219,1195.5186,616.4219" style="stroke:#181818;stroke-width:1.0;"/><text fill="#000000" font-family="sans-serif" font-size="13" lengthAdjust="spacing" textLength="234.4316" x="1195.5186" y="598.356">Move from `topPos` to `bottomPos`</text><polygon fill="#181818" points="422.0776,641.5547,412.0776,645.5547,422.0776,649.5547,418.0776,645.5547" style="stroke:#181818;stroke-width:1.0;"/><line style="stroke:#181818;stroke-width:1.0;" x1="416.0776" x2="1177.5186" y1="645.5547" y2="645.5547"/><text fill="#000000" font-family="sans-serif" font-size="13" lengthAdjust="spacing" textLength="242.2456" x="428.0776" y="640.4888">Set `gvl.bottomPosReached = TRUE`</text><line style="stroke:#181818;stroke-width:1.0;" x1="1188.5186" x2="1230.5186" y1="674.6875" y2="674.6875"/><line style="stroke:#181818;stroke-width:1.0;" x1="1230.5186" x2="1230.5186" y1="674.6875" y2="687.6875"/><line style="stroke:#181818;stroke-width:1.0;" x1="1189.5186" x2="1230.5186" y1="687.6875" y2="687.6875"/><polygon fill="#181818" points="1199.5186,683.6875,1189.5186,687.6875,1199.5186,691.6875,1195.5186,687.6875" style="stroke:#181818;stroke-width:1.0;"/><text fill="#000000" font-family="sans-serif" font-size="13" lengthAdjust="spacing" textLength="148.0718" x="1195.5186" y="669.6216">Move back to `topPos`</text><polygon fill="#181818" points="422.0776,712.8203,412.0776,716.8203,422.0776,720.8203,418.0776,716.8203" style="stroke:#181818;stroke-width:1.0;"/><line style="stroke:#181818;stroke-width:1.0;" x1="416.0776" x2="1182.5186" y1="716.8203" y2="716.8203"/><text fill="#000000" font-family="sans-serif" font-size="13" lengthAdjust="spacing" textLength="245.5337" x="428.0776" y="711.7544">Set `gvl.sawingProcessDone = TRUE`</text><polygon fill="#181818" points="1105.6763,741.9531,1115.6763,745.9531,1105.6763,749.9531,1109.6763,745.9531" style="stroke:#181818;stroke-width:1.0;"/><line style="stroke:#181818;stroke-width:1.0;" x1="411.0776" x2="1111.6763" y1="745.9531" y2="745.9531"/><text fill="#000000" font-family="sans-serif" font-size="13" lengthAdjust="spacing" textLength="263.4214" x="418.0776" y="740.8872">Set `gvl.startClamp = FALSE` (declamp)</text><polygon fill="#181818" points="422.0776,771.0859,412.0776,775.0859,422.0776,779.0859,418.0776,775.0859" style="stroke:#181818;stroke-width:1.0;"/><line style="stroke:#181818;stroke-width:1.0;" x1="416.0776" x2="1121.6763" y1="775.0859" y2="775.0859"/><text fill="#000000" font-family="sans-serif" font-size="13" lengthAdjust="spacing" textLength="177.2964" x="428.0776" y="770.02">Set `gvl.clamped = FALSE`</text><polygon fill="#181818" points="49.9551,800.2188,39.9551,804.2188,49.9551,808.2188,45.9551,804.2188" style="stroke:#181818;stroke-width:1.0;"/><line style="stroke:#181818;stroke-width:1.0;" x1="43.9551" x2="400.0776" y1="804.2188" y2="804.2188"/><text fill="#000000" font-family="sans-serif" font-size="13" lengthAdjust="spacing" textLength="175.8174" x="55.9551" y="799.1528">Display "Sawing complete"</text><line style="stroke:#181818;stroke-width:1.0;" x1="411.0776" x2="453.0776" y1="833.3516" y2="833.3516"/><line style="stroke:#181818;stroke-width:1.0;" x1="453.0776" x2="453.0776" y1="833.3516" y2="846.3516"/><line style="stroke:#181818;stroke-width:1.0;" x1="412.0776" x2="453.0776" y1="846.3516" y2="846.3516"/><polygon fill="#181818" points="422.0776,842.3516,412.0776,846.3516,422.0776,850.3516,418.0776,846.3516" style="stroke:#181818;stroke-width:1.0;"/><text fill="#000000" font-family="sans-serif" font-size="13" lengthAdjust="spacing" textLength="373.0454" x="418.0776" y="828.2856">Start `timer1` to delay reset of `gvl.sawingProcessDone`</text><line style="stroke:#181818;stroke-width:1.0;stroke-dasharray:2.0,2.0;" x1="411.0776" x2="453.0776" y1="880.4844" y2="880.4844"/><line style="stroke:#181818;stroke-width:1.0;stroke-dasharray:2.0,2.0;" x1="453.0776" x2="453.0776" y1="880.4844" y2="893.4844"/><line style="stroke:#181818;stroke-width:1.0;stroke-dasharray:2.0,2.0;" x1="406.0776" x2="453.0776" y1="893.4844" y2="893.4844"/><polygon fill="#181818" points="416.0776,889.4844,406.0776,893.4844,416.0776,897.4844,412.0776,893.4844" style="stroke:#181818;stroke-width:1.0;"/><text fill="#000000" font-family="sans-serif" font-size="13" lengthAdjust="spacing" textLength="283.3657" x="418.0776" y="875.4185">After delay, reset `gvl.sawingProcessDone`</text><!--SRC=[bLJ1Rjim3BtxAuYSEc0Rq6k13UZI5Z2G0a7TtANQT2BCbbI9IT2_hsZPhkKum9PB49BlFVAHYYp9EDXvT9cLZbIfhDJK1N9Dw6fP8aWFkpp95_AyGRsdGq76ShxO54d1kf6jdKEoZ7dXn-z01tUGQtia48g_GbRfVUGK87MLn0kBM8bCbgHEaf2x2Gm3Ju61PNzgVZfyFog7rPGCVi6bm2BQVqcbe5uzRNxhq7iGdiA8Vuv4HdyPCl07KnA1fTeWzVgoUmpqN3s2diq9WGnOunKfewyFA2BmSfn0lZN-1MLvw2QACfF9rmSi_yRY5aaskNyriVrCDWJF70Dj22G1isKGFZsUhRY31-Lj8p-W3Lx8FSAgQxiZu-OPj8gegNLheslbshvkIjvRa0wIz3REWRhA-c6wMximEaQ7yl5quc76v8LKoU69MHNESCDYvPbXB0FnRE2imgtDxsYYo-VFi17TMLKxquA8cn9icNWpuJvQ_ZcKfosE-VbY5zZVPDWla_O2ouontwqpPTZYWz6uD7vylVzWzzFzfdWKS5DXP-Qt_tO-4borVdPvg_WKe3IjRP1mbJpjRa62L8lkjhEtGWQ5fnjqJNrb_lX81fBxElmDHk3t7daDDkbvbty2]--></g></svg>