<svg xmlns="http://www.w3.org/2000/svg" xmlns:xlink="http://www.w3.org/1999/xlink" contentStyleType="text/css" height="666px" preserveAspectRatio="none" style="width:534px;height:666px;background:#FFFFFF;" version="1.1" viewBox="0 0 534 666" width="534px" zoomAndPan="magnify"><defs/><g><ellipse cx="222.32" cy="16" fill="#222222" rx="10" ry="10" style="stroke:#222222;stroke-width:1.0;"/><g id="Idle"><rect fill="#F1F1F1" height="50.2656" rx="12.5" ry="12.5" style="stroke:#181818;stroke-width:0.5;" width="129.8281" x="157.4" y="87"/><line style="stroke:#181818;stroke-width:0.5;" x1="157.4" x2="287.2281" y1="113.2969" y2="113.2969"/><text fill="#000000" font-family="sans-serif" font-size="14" lengthAdjust="spacing" textLength="25.5186" x="209.5548" y="104.9951">Idle</text><text fill="#000000" font-family="sans-serif" font-size="12" lengthAdjust="spacing" textLength="109.8281" x="162.4" y="129.4355">clamping = FALSE</text></g><g id="Start_Clamping"><rect fill="#F1F1F1" height="64.2344" rx="12.5" ry="12.5" style="stroke:#181818;stroke-width:0.5;" width="129.7109" x="68.46" y="214.27"/><line style="stroke:#181818;stroke-width:0.5;" x1="68.46" x2="198.1709" y1="240.5669" y2="240.5669"/><text fill="#000000" font-family="sans-serif" font-size="14" lengthAdjust="spacing" textLength="107.6182" x="79.5064" y="232.2651">Start_Clamping</text><text fill="#000000" font-family="sans-serif" font-size="12" lengthAdjust="spacing" textLength="104.8652" x="73.46" y="256.7055">clamping = TRUE</text><text fill="#000000" font-family="sans-serif" font-size="12" lengthAdjust="spacing" textLength="109.7109" x="73.46" y="270.6743">timerstart = TRUE</text></g><g id="Clamping"><rect fill="#F1F1F1" height="50.2656" rx="12.5" ry="12.5" style="stroke:#181818;stroke-width:0.5;" width="228.6348" x="7" y="355.5"/><line style="stroke:#181818;stroke-width:0.5;" x1="7" x2="235.6348" y1="381.7969" y2="381.7969"/><text fill="#000000" font-family="sans-serif" font-size="14" lengthAdjust="spacing" textLength="66.418" x="88.1084" y="373.4951">Clamping</text><text fill="#000000" font-family="sans-serif" font-size="12" lengthAdjust="spacing" textLength="208.6348" x="12" y="397.9355">Timer active, clamping in progress</text></g><g id="Clamped"><rect fill="#F1F1F1" height="50.2656" rx="12.5" ry="12.5" style="stroke:#181818;stroke-width:0.5;" width="156.4355" x="10.1" y="482.77"/><line style="stroke:#181818;stroke-width:0.5;" x1="10.1" x2="166.5355" y1="509.0669" y2="509.0669"/><text fill="#000000" font-family="sans-serif" font-size="14" lengthAdjust="spacing" textLength="62.2686" x="57.1835" y="500.7651">Clamped</text><text fill="#000000" font-family="sans-serif" font-size="12" lengthAdjust="spacing" textLength="136.4355" x="15.1" y="525.2055">clampingDone = TRUE</text></g><g id="Release_Clamp"><rect fill="#F1F1F1" height="50.2656" rx="12.5" ry="12.5" style="stroke:#181818;stroke-width:0.5;" width="161.3984" x="113.62" y="610.03"/><line style="stroke:#181818;stroke-width:0.5;" x1="113.62" x2="275.0184" y1="636.3269" y2="636.3269"/><text fill="#000000" font-family="sans-serif" font-size="14" lengthAdjust="spacing" textLength="107.0986" x="140.7699" y="628.0251">Release_Clamp</text><text fill="#000000" font-family="sans-serif" font-size="12" lengthAdjust="spacing" textLength="141.3984" x="118.62" y="652.4655">clampingDone = FALSE</text></g><!--link *start* to Idle--><g id="link_*start*_Idle"><path d="M222.32,26.37 C222.32,40.32 222.32,61.03 222.32,80.75 " fill="none" id="*start*-to-Idle" style="stroke:#181818;stroke-width:1.0;"/><polygon fill="#181818" points="222.32,86.75,226.32,77.75,222.32,81.75,218.32,77.75,222.32,86.75" style="stroke:#181818;stroke-width:1.0;"/></g><!--link Idle to Start_Clamping--><g id="link_Idle_Start_Clamping"><path d="M162.64,137.72 C150.91,145.4 140.14,155.13 133.32,167.27 C125.47,181.22 124.2162,192.9446 125.8362,207.9546 " fill="none" id="Idle-to-Start_Clamping" style="stroke:#181818;stroke-width:1.0;"/><polygon fill="#181818" points="126.48,213.92,129.4912,204.5427,125.9435,208.9489,121.5374,205.4012,126.48,213.92" style="stroke:#181818;stroke-width:1.0;"/><text fill="#000000" font-family="sans-serif" font-size="13" lengthAdjust="spacing" textLength="149.3984" x="134.32" y="180.3369">gvl.startClamp = TRUE</text></g><!--link Start_Clamping to Clamping--><g id="link_Start_Clamping_Clamping"><path d="M130.47,278.73 C128.35,302.1 126.0435,327.6047 124.0835,349.1547 " fill="none" id="Start_Clamping-to-Clamping" style="stroke:#181818;stroke-width:1.0;"/><polygon fill="#181818" points="123.54,355.13,128.3388,346.5293,123.9929,350.1506,120.3716,345.8047,123.54,355.13" style="stroke:#181818;stroke-width:1.0;"/><text fill="#000000" font-family="sans-serif" font-size="13" lengthAdjust="spacing" textLength="118.8535" x="129.32" y="321.5669">timerstart = TRUE</text></g><!--link Clamping to Clamped--><g id="link_Clamping_Clamped"><path d="M114.88,406.09 C109.06,428.16 102.0788,454.658 96.2688,476.708 " fill="none" id="Clamping-to-Clamped" style="stroke:#181818;stroke-width:1.0;"/><polygon fill="#181818" points="94.74,482.51,100.9011,474.8262,96.014,477.675,93.1652,472.7879,94.74,482.51" style="stroke:#181818;stroke-width:1.0;"/><text fill="#000000" font-family="sans-serif" font-size="13" lengthAdjust="spacing" textLength="170.8408" x="108.32" y="448.8369">timerreached = TRUE (3s)</text></g><!--link Clamped to Release_Clamp--><g id="link_Clamped_Release_Clamp"><path d="M75.68,533.33 C70.03,547.9 66.42,566.21 75.32,580.03 C84.41,594.16 92.8616,601.8816 107.8516,609.6416 " fill="none" id="Clamped-to-Release_Clamp" style="stroke:#181818;stroke-width:1.0;"/><polygon fill="#181818" points="113.18,612.4,107.0264,604.7102,108.7397,610.1014,103.3486,611.8147,113.18,612.4" style="stroke:#181818;stroke-width:1.0;"/><text fill="#000000" font-family="sans-serif" font-size="13" lengthAdjust="spacing" textLength="207.0542" x="76.32" y="576.0969">gvl.sawingProcessDone = TRUE</text></g><!--link Release_Clamp to Idle--><g id="link_Release_Clamp_Idle"><path d="M252.69,609.57 C265.89,601.75 278.8,591.95 288.32,580.03 C308.97,554.18 310.32,541.99 310.32,508.9 C310.32,245.39 310.32,245.39 310.32,245.39 C310.32,209.32 308.06,197.46 288.32,167.27 C280.94,155.98 275.1483,149.6243 264.7183,141.2943 " fill="none" id="Release_Clamp-to-Idle" style="stroke:#181818;stroke-width:1.0;"/><polygon fill="#181818" points="260.03,137.55,264.5662,146.292,263.9369,140.6703,269.5586,140.041,260.03,137.55" style="stroke:#181818;stroke-width:1.0;"/><text fill="#000000" font-family="sans-serif" font-size="13" lengthAdjust="spacing" textLength="215.0649" x="311.32" y="385.2069">Clamp released, returning to idle</text></g><!--SRC=[VP7B2i8m44Nt-OfPgbGtxWeAeXK45zBMbOY4TAY1z44Iw- -RXy7QefkGp3rpfaqkiolCvsiu5089iIl4m0IjMbwNi8BzvfWblcwnJ5EfRzkGnr1sOg5iqTLCGvwU4q96N4_fY16WUONIcNuWTlnVdlJItAP0cUOTHf_Xl8PMDgL4fSXOZ4NmIgJiRexU39EbchxrZWc-NLDZc1vIQqjH85NelprS4dsQZfDic1dURoH3Uc3tB_0DXHSpj2z87nUHsUc7hEr_wGQuOLu0]--></g></svg>